STARTFONT 2.1
COMMENT
COMMENT Converted from TrueType font "VeraMono.ttf" by "ttf2bdf 2.6".
COMMENT
FONT -FreeType-Bitstream Vera Sans Mono-Medium-R-Normal--44-320-100-100-P-196-ISO10646-1
SIZE 32 100 100
FONTBOUNDINGBOX 28 52 0 -11
STARTPROPERTIES 20
FOUNDRY "FreeType"
FAMILY_NAME "Bitstream Vera Sans Mono"
WEIGHT_NAME "Medium"
SLANT "R"
SETWIDTH_NAME "Normal"
ADD_STYLE_NAME ""
PIXEL_SIZE 44
POINT_SIZE 320
RESOLUTION_X 100
RESOLUTION_Y 100
SPACING "P"
AVERAGE_WIDTH 196
CHARSET_REGISTRY "ISO10646"
CHARSET_ENCODING "1"
FONT_ASCENT 40
FONT_DESCENT 10
COPYRIGHT "Copyright (c) 2003 by Bitstream, Inc. All Rights Reserved."
_TTF_FONTFILE "VeraMono.ttf"
_TTF_PSNAME "BitstreamVeraSansMono-Roman"
_XFREE86_GLYPH_RANGES "32_126 160_255 262_263 268_269 273 286_287 304_305 321_322 338_339 350_353 376 381_382 402 710_711 728_733 937 960 8211_8212 8216_8218 8220_8222 8224_8226 8230 8240 8249_8250 8364 8482 8706 8710 8719 8721_8722 8725 8729_8730 8734 8747 8776 8800 8804_8805 9674 64257_64258"
ENDPROPERTIES
CHARS 256
STARTCHAR 0020
ENCODING 32
SWIDTH 585 0
DWIDTH 26 0
BBX 1 1 0 0
BITMAP
00
ENDCHAR
STARTCHAR 0021
ENCODING 33
SWIDTH 585 0
DWIDTH 26 0
BBX 4 32 11 0
BITMAP
F0
F0
F0
F0
F0
F0
F0
F0
F0
F0
F0
F0
F0
F0
F0
F0
F0
F0
F0
F0
F0
F0
00
00
00
00
00
F0
F0
F0
F0
F0
ENDCHAR
STARTCHAR 0022
ENCODING 34
SWIDTH 585 0
DWIDTH 26 0
BBX 12 12 7 20
BITMAP
F0F0
F0F0
F0F0
F0F0
F0F0
F0F0
F0F0
F0F0
F0F0
F0F0
F0F0
F0F0
ENDCHAR
STARTCHAR 0023
ENCODING 35
SWIDTH 585 0
DWIDTH 26 0
BBX 26 31 0 0
BITMAP
001C0E00
001C1E00
003C1C00
003C1C00
00381C00
00383C00
00783800
00783800
00703800
3FFFFFC0
3FFFFFC0
3FFFFFC0
00E07000
00E0F000
01E0E000
01E0E000
01C0E000
01C1E000
03C1C000
FFFFFF00
FFFFFF00
FFFFFF00
07838000
07838000
07078000
07078000
0F070000
0F070000
0E0F0000
0E0F0000
1E0E0000
ENDCHAR
STARTCHAR 0024
ENCODING 36
SWIDTH 585 0
DWIDTH 26 0
BBX 20 39 4 -6
BITMAP
006000
006000
006000
006000
006000
03FE00
1FFFC0
3FFFC0
7C63C0
786040
F06000
F06000
F06000
F06000
F86000
7C6000
7F6000
3FF800
0FFF00
03FF80
007FC0
0063E0
0061F0
0060F0
0060F0
0060F0
0060F0
8061F0
E061E0
F867E0
FFFFC0
7FFF00
07FC00
006000
006000
006000
006000
006000
006000
ENDCHAR
STARTCHAR 0025
ENCODING 37
SWIDTH 585 0
DWIDTH 26 0
BBX 25 31 1 0
BITMAP
0FC00000
1FE00000
3FF00000
78780000
F03C0000
E01C0000
E01C0000
E01C0000
E01C0000
F03C0000
78780300
3FF01F00
1FE07E00
0FC3F800
000FC000
007F0000
01F80000
0FC1F800
3F03FC00
7807FE00
200F0F00
001E0700
001C0380
001C0380
001C0380
001C0380
001E0780
000F0F00
0007FE00
0003FC00
0001F800
ENDCHAR
STARTCHAR 0026
ENCODING 38
SWIDTH 585 0
DWIDTH 26 0
BBX 25 33 1 0
BITMAP
007F0000
01FFC000
03FFC000
07C1C000
0F804000
0F000000
0F000000
0F000000
0F000000
0F000000
07800000
07800000
03C00000
03E00000
07F00000
0FF00000
1EF80000
3C7C0380
783E0380
783E0380
F01F0380
F00F8380
F007C380
F003E700
F003E700
F001FF00
7800FE00
7C007C00
3E007E00
3F81FE00
1FFFFF00
07FF8F00
01FE0F80
ENDCHAR
STARTCHAR 0027
ENCODING 39
SWIDTH 585 0
DWIDTH 26 0
BBX 4 12 11 20
BITMAP
F0
F0
F0
F0
F0
F0
F0
F0
F0
F0
F0
F0
ENDCHAR
STARTCHAR 0028
ENCODING 40
SWIDTH 585 0
DWIDTH 26 0
BBX 10 39 9 -6
BITMAP
03C0
0780
0780
0F00
0F00
1E00
1E00
3C00
3C00
3C00
7800
7800
7800
7800
F000
F000
F000
F000
F000
F000
F000
F000
F000
F000
F000
7800
7800
7800
7800
3C00
3C00
3C00
1E00
1E00
0F00
0F00
0780
0780
03C0
ENDCHAR
STARTCHAR 0029
ENCODING 41
SWIDTH 585 0
DWIDTH 26 0
BBX 10 39 7 -6
BITMAP
F000
7800
7800
3C00
3C00
1E00
1E00
0F00
0F00
0F00
0780
0780
0780
0780
03C0
03C0
03C0
03C0
03C0
03C0
03C0
03C0
03C0
03C0
03C0
0780
0780
0780
0780
0F00
0F00
0F00
1E00
1E00
3C00
3C00
7800
7800
F000
ENDCHAR
STARTCHAR 002A
ENCODING 42
SWIDTH 585 0
DWIDTH 26 0
BBX 18 20 4 13
BITMAP
00C000
00C000
00C000
00C000
40C080
F0C3C0
78C780
1EDE00
07F800
03F000
03F000
07F800
1EDE00
78C780
F0C3C0
40C080
00C000
00C000
00C000
00C000
ENDCHAR
STARTCHAR 002B
ENCODING 43
SWIDTH 585 0
DWIDTH 26 0
BBX 24 24 1 2
BITMAP
003C00
003C00
003C00
003C00
003C00
003C00
003C00
003C00
003C00
003C00
FFFFFF
FFFFFF
FFFFFF
FFFFFF
003C00
003C00
003C00
003C00
003C00
003C00
003C00
003C00
003C00
003C00
ENDCHAR
STARTCHAR 002C
ENCODING 44
SWIDTH 585 0
DWIDTH 26 0
BBX 7 13 9 -6
BITMAP
3E
3E
3E
3E
3E
3E
3C
7C
78
78
70
F0
E0
ENDCHAR
STARTCHAR 002D
ENCODING 45
SWIDTH 585 0
DWIDTH 26 0
BBX 11 4 8 10
BITMAP
FFE0
FFE0
FFE0
FFE0
ENDCHAR
STARTCHAR 002E
ENCODING 46
SWIDTH 585 0
DWIDTH 26 0
BBX 5 7 11 0
BITMAP
F8
F8
F8
F8
F8
F8
F8
ENDCHAR
STARTCHAR 002F
ENCODING 47
SWIDTH 585 0
DWIDTH 26 0
BBX 21 36 2 -4
BITMAP
000078
0000F0
0000F0
0001E0
0001E0
0003C0
0003C0
000780
000780
000F80
000F00
000F00
001E00
001E00
003C00
003C00
007800
007800
00F000
00F000
01E000
01E000
03C000
03C000
078000
078000
0F8000
0F0000
0F0000
1E0000
1E0000
3C0000
3C0000
780000
780000
F00000
ENDCHAR
STARTCHAR 0030
ENCODING 48
SWIDTH 585 0
DWIDTH 26 0
BBX 21 33 3 0
BITMAP
01FC00
07FF00
0FFF80
1F07C0
3E03E0
3C01E0
7C01E0
7800F0
7800F0
7800F0
F00078
F00078
F00078
F00078
F07078
F0F878
F0F878
F0F878
F07078
F00078
F00078
F00078
F00078
7800F0
7800F0
7800F0
7C01F0
3C01E0
3E03E0
1F07C0
0FFF80
07FF00
01FC00
ENDCHAR
STARTCHAR 0031
ENCODING 49
SWIDTH 585 0
DWIDTH 26 0
BBX 18 32 6 0
BITMAP
07E000
3FE000
FFE000
F9E000
C1E000
01E000
01E000
01E000
01E000
01E000
01E000
01E000
01E000
01E000
01E000
01E000
01E000
01E000
01E000
01E000
01E000
01E000
01E000
01E000
01E000
01E000
01E000
01E000
01E000
FFFFC0
FFFFC0
FFFFC0
ENDCHAR
STARTCHAR 0032
ENCODING 50
SWIDTH 585 0
DWIDTH 26 0
BBX 21 33 3 0
BITMAP
07F800
7FFF00
FFFFC0
FC07E0
E001F0
8000F0
0000F8
000078
000078
000078
000078
000078
0000F8
0000F0
0001F0
0003E0
0007E0
000FC0
000F80
001F00
003E00
007C00
00F800
01F000
03E000
07C000
0F8000
1F0000
3E0000
FC0000
FFFFF8
FFFFF8
FFFFF8
ENDCHAR
STARTCHAR 0033
ENCODING 51
SWIDTH 585 0
DWIDTH 26 0
BBX 21 33 3 0
BITMAP
0FF800
7FFF00
7FFF80
7C07C0
4003E0
0001E0
0000F0
0000F0
0000F0
0000F0
0000F0
0001E0
0003E0
0007C0
03FF80
03FE00
03FF80
0007C0
0001E0
0000F0
0000F0
000078
000078
000078
000078
000078
0000F8
8000F0
E001F0
F807E0
FFFFC0
7FFF00
07FC00
ENDCHAR
STARTCHAR 0034
ENCODING 52
SWIDTH 585 0
DWIDTH 26 0
BBX 22 32 2 0
BITMAP
0007C0
000FC0
001FC0
001FC0
003BC0
007BC0
0073C0
00F3C0
01E3C0
01C3C0
03C3C0
0783C0
0703C0
0F03C0
0E03C0
1E03C0
3C03C0
3803C0
7803C0
F003C0
F003C0
FFFFFC
FFFFFC
FFFFFC
0003C0
0003C0
0003C0
0003C0
0003C0
0003C0
0003C0
0003C0
ENDCHAR
STARTCHAR 0035
ENCODING 53
SWIDTH 585 0
DWIDTH 26 0
BBX 21 32 3 0
BITMAP
7FFFE0
7FFFE0
7FFFE0
780000
780000
780000
780000
780000
780000
780000
780000
7FF800
7FFF00
7FFF80
780FC0
4003E0
0001F0
0000F0
0000F8
000078
000078
000078
000078
000078
0000F8
0000F0
0001F0
8003E0
F00FC0
FFFF80
FFFF00
3FF800
ENDCHAR
STARTCHAR 0036
ENCODING 54
SWIDTH 585 0
DWIDTH 26 0
BBX 21 33 3 0
BITMAP
007F80
03FFE0
07FFE0
0FC0E0
1F0020
3E0000
3C0000
780000
780000
780000
700000
F0FE00
F3FF80
F7FFC0
FF07E0
FC01F0
F800F0
F800F0
F80078
F00078
F00078
F00078
F00078
700078
700078
700078
7800F0
3800F0
3C01F0
1F07E0
0FFFC0
07FF80
01FC00
ENDCHAR
STARTCHAR 0037
ENCODING 55
SWIDTH 585 0
DWIDTH 26 0
BBX 21 32 3 0
BITMAP
FFFFF8
FFFFF8
FFFFF8
0000F0
0000F0
0001E0
0001E0
0003E0
0003C0
0007C0
000780
000780
000F80
000F00
001F00
001E00
003E00
003C00
003C00
007C00
007800
00F800
00F000
00F000
01F000
01E000
03E000
03C000
07C000
078000
078000
0F8000
ENDCHAR
STARTCHAR 0038
ENCODING 56
SWIDTH 585 0
DWIDTH 26 0
BBX 21 33 3 0
BITMAP
01FC00
07FF00
1FFFC0
3F07E0
3C01E0
7C01F0
7800F0
7800F0
7800F0
7800F0
7800F0
3C01E0
3C01E0
1F07C0
0FFF80
03FE00
0FFF80
3F07E0
3C01E0
7800F0
F800F0
F00078
F00078
F00078
F00078
F00078
F800F8
7800F0
7C01F0
3F07E0
1FFFC0
0FFF80
01FC00
ENDCHAR
STARTCHAR 0039
ENCODING 57
SWIDTH 585 0
DWIDTH 26 0
BBX 21 33 3 0
BITMAP
01FC00
0FFF00
1FFF80
3F07C0
7C01E0
7800E0
7800F0
F00070
F00070
F00070
F00078
F00078
F00078
F00078
F000F8
7800F8
7800F8
7C01F8
3F07F8
1FFF78
0FFE78
03F878
000070
0000F0
0000F0
0000F0
0001E0
0003E0
2007C0
381F80
3FFF00
3FFE00
0FF000
ENDCHAR
STARTCHAR 003A
ENCODING 58
SWIDTH 585 0
DWIDTH 26 0
BBX 5 23 11 0
BITMAP
F8
F8
F8
F8
F8
F8
F8
00
00
00
00
00
00
00
00
00
F8
F8
F8
F8
F8
F8
F8
ENDCHAR
STARTCHAR 003B
ENCODING 59
SWIDTH 585 0
DWIDTH 26 0
BBX 7 29 9 -6
BITMAP
3E
3E
3E
3E
3E
3E
3E
00
00
00
00
00
00
00
00
00
3E
3E
3E
3E
3E
3E
3C
7C
78
78
70
F0
E0
ENDCHAR
STARTCHAR 003C
ENCODING 60
SWIDTH 585 0
DWIDTH 26 0
BBX 23 22 2 3
BITMAP
000002
00001E
00007E
0003FE
000FFC
007FE0
01FF00
0FFC00
3FE000
FF8000
FC0000
FC0000
FF0000
3FE000
0FFC00
01FF00
007FE0
000FFC
0003FE
00007E
00001E
000002
ENDCHAR
STARTCHAR 003D
ENCODING 61
SWIDTH 585 0
DWIDTH 26 0
BBX 23 13 2 7
BITMAP
FFFFFE
FFFFFE
FFFFFE
FFFFFE
000000
000000
000000
000000
000000
FFFFFE
FFFFFE
FFFFFE
FFFFFE
ENDCHAR
STARTCHAR 003E
ENCODING 62
SWIDTH 585 0
DWIDTH 26 0
BBX 23 22 2 3
BITMAP
800000
F00000
FC0000
FF8000
7FE000
0FFC00
01FF00
007FE0
000FF8
0003FE
00007E
00007E
0001FE
000FF8
007FE0
01FF00
0FFC00
7FE000
FF8000
FC0000
F00000
800000
ENDCHAR
STARTCHAR 003F
ENCODING 63
SWIDTH 585 0
DWIDTH 26 0
BBX 17 33 5 0
BITMAP
0FF000
7FFC00
FFFE00
F83F00
C00F00
800780
000780
000780
000780
000F80
000F00
001F00
003E00
007C00
00F800
01F000
03E000
03C000
07C000
078000
078000
078000
078000
078000
078000
000000
000000
000000
078000
078000
078000
078000
078000
ENDCHAR
STARTCHAR 0040
ENCODING 64
SWIDTH 585 0
DWIDTH 26 0
BBX 25 37 1 -7
BITMAP
001FC000
00FFF800
01FFFC00
07E03E00
0F801F00
0F000F00
1E000700
3C000380
38000380
7803E380
700FFB80
701FFF80
703C1F80
E0780F80
E0700780
E0F00780
E0E00380
E0E00380
E0E00380
E0E00380
E0E00380
E0E00780
E0700780
F0780F80
703C1F80
701FFF80
780FFB80
3807E380
3C000000
1C000000
1E000000
0F000000
07C00000
03F00800
01FFFC00
007FFC00
000FF800
ENDCHAR
STARTCHAR 0041
ENCODING 65
SWIDTH 585 0
DWIDTH 26 0
BBX 25 32 1 0
BITMAP
003E0000
007F0000
007F0000
007F0000
00FF8000
00F78000
00F78000
00F78000
01E3C000
01E3C000
01E3C000
03E1E000
03C1E000
03C1E000
07C1F000
0780F000
0780F000
0F80F800
0F007800
0F007800
0FFFF800
1FFFFC00
1FFFFC00
1E003C00
3E003E00
3C001E00
3C001E00
7C001F00
78000F00
78000F00
F8000F80
F0000780
ENDCHAR
STARTCHAR 0042
ENCODING 66
SWIDTH 585 0
DWIDTH 26 0
BBX 21 32 4 0
BITMAP
FFFC00
FFFF00
FFFFC0
F007E0
F001E0
F000F0
F000F0
F000F0
F000F0
F000F0
F001F0
F001E0
F007E0
FFFF80
FFFE00
FFFF80
F007E0
F001F0
F000F0
F000F0
F00078
F00078
F00078
F00078
F00078
F00078
F000F0
F001F0
F007E0
FFFFC0
FFFF80
FFFC00
ENDCHAR
STARTCHAR 0043
ENCODING 67
SWIDTH 585 0
DWIDTH 26 0
BBX 20 33 3 0
BITMAP
007F80
01FFE0
07FFF0
0FC0F0
1F0030
1E0010
3C0000
3C0000
780000
780000
780000
F00000
F00000
F00000
F00000
F00000
F00000
F00000
F00000
F00000
F00000
F00000
780000
780000
780000
3C0000
3C0000
1E0010
1F0030
0FC0F0
07FFF0
01FFE0
007F80
ENDCHAR
STARTCHAR 0044
ENCODING 68
SWIDTH 585 0
DWIDTH 26 0
BBX 21 32 3 0
BITMAP
FFE000
FFFC00
FFFF00
F01F80
F007C0
F003E0
F001E0
F000F0
F000F0
F000F0
F00070
F00078
F00078
F00078
F00078
F00078
F00078
F00078
F00078
F00078
F00078
F00078
F000F0
F000F0
F000F0
F001E0
F003E0
F007C0
F01F80
FFFF00
FFFC00
FFE000
ENDCHAR
STARTCHAR 0045
ENCODING 69
SWIDTH 585 0
DWIDTH 26 0
BBX 19 32 4 0
BITMAP
FFFFE0
FFFFE0
FFFFE0
F00000
F00000
F00000
F00000
F00000
F00000
F00000
F00000
F00000
F00000
FFFFC0
FFFFC0
FFFFC0
F00000
F00000
F00000
F00000
F00000
F00000
F00000
F00000
F00000
F00000
F00000
F00000
F00000
FFFFE0
FFFFE0
FFFFE0
ENDCHAR
STARTCHAR 0046
ENCODING 70
SWIDTH 585 0
DWIDTH 26 0
BBX 19 32 5 0
BITMAP
FFFFE0
FFFFE0
FFFFE0
F00000
F00000
F00000
F00000
F00000
F00000
F00000
F00000
F00000
F00000
FFFFC0
FFFFC0
FFFFC0
F00000
F00000
F00000
F00000
F00000
F00000
F00000
F00000
F00000
F00000
F00000
F00000
F00000
F00000
F00000
F00000
ENDCHAR
STARTCHAR 0047
ENCODING 71
SWIDTH 585 0
DWIDTH 26 0
BBX 21 33 3 0
BITMAP
007F80
01FFE0
07FFF0
0FC0F0
1F0030
1E0010
3C0000
3C0000
780000
780000
780000
F00000
F00000
F00000
F00000
F00000
F00FF8
F00FF8
F00FF8
F00078
F00078
F00078
780078
780078
780078
780078
3C0078
1E0078
1F0078
0F81F8
07FFF8
03FFE0
007F00
ENDCHAR
STARTCHAR 0048
ENCODING 72
SWIDTH 585 0
DWIDTH 26 0
BBX 21 32 3 0
BITMAP
F00078
F00078
F00078
F00078
F00078
F00078
F00078
F00078
F00078
F00078
F00078
F00078
F00078
FFFFF8
FFFFF8
FFFFF8
F00078
F00078
F00078
F00078
F00078
F00078
F00078
F00078
F00078
F00078
F00078
F00078
F00078
F00078
F00078
F00078
ENDCHAR
STARTCHAR 0049
ENCODING 73
SWIDTH 585 0
DWIDTH 26 0
BBX 18 32 4 0
BITMAP
FFFFC0
FFFFC0
FFFFC0
01E000
01E000
01E000
01E000
01E000
01E000
01E000
01E000
01E000
01E000
01E000
01E000
01E000
01E000
01E000
01E000
01E000
01E000
01E000
01E000
01E000
01E000
01E000
01E000
01E000
01E000
FFFFC0
FFFFC0
FFFFC0
ENDCHAR
STARTCHAR 004A
ENCODING 74
SWIDTH 585 0
DWIDTH 26 0
BBX 18 32 3 0
BITMAP
03FFC0
03FFC0
03FFC0
0003C0
0003C0
0003C0
0003C0
0003C0
0003C0
0003C0
0003C0
0003C0
0003C0
0003C0
0003C0
0003C0
0003C0
0003C0
0003C0
0003C0
0003C0
0003C0
0003C0
0003C0
0003C0
8003C0
C00780
E00780
F81F00
FFFF00
7FFE00
0FF000
ENDCHAR
STARTCHAR 004B
ENCODING 75
SWIDTH 585 0
DWIDTH 26 0
BBX 23 32 3 0
BITMAP
F0007C
F000F8
F001F0
F003E0
F007C0
F00F80
F01F00
F03F00
F07E00
F0FC00
F0F800
F1F000
F3E000
F7C000
FFE000
FFF000
FEF000
FCF800
F87C00
F03E00
F03E00
F01F00
F00F80
F00F80
F007C0
F003E0
F003E0
F001F0
F000F8
F000F8
F0007C
F0003E
ENDCHAR
STARTCHAR 004C
ENCODING 76
SWIDTH 585 0
DWIDTH 26 0
BBX 20 32 5 0
BITMAP
F00000
F00000
F00000
F00000
F00000
F00000
F00000
F00000
F00000
F00000
F00000
F00000
F00000
F00000
F00000
F00000
F00000
F00000
F00000
F00000
F00000
F00000
F00000
F00000
F00000
F00000
F00000
F00000
F00000
FFFFF0
FFFFF0
FFFFF0
ENDCHAR
STARTCHAR 004D
ENCODING 77
SWIDTH 585 0
DWIDTH 26 0
BBX 23 32 2 0
BITMAP
FC007E
FC007E
FE00FE
FE00FE
FE00FE
F701DE
F701DE
F701DE
F3839E
F3839E
F3839E
F1C71E
F1C71E
F1C71E
F0EE1E
F0EE1E
F0FE1E
F07C1E
F07C1E
F07C1E
F0381E
F0001E
F0001E
F0001E
F0001E
F0001E
F0001E
F0001E
F0001E
F0001E
F0001E
F0001E
ENDCHAR
STARTCHAR 004E
ENCODING 78
SWIDTH 585 0
DWIDTH 26 0
BBX 21 32 3 0
BITMAP
FC0078
FC0078
FC0078
FE0078
FE0078
FF0078
FF0078
F78078
F78078
F3C078
F3C078
F1C078
F1E078
F0E078
F0F078
F0F078
F07878
F07878
F03878
F03C78
F01C78
F01E78
F01E78
F00F78
F00F78
F007F8
F007F8
F003F8
F003F8
F001F8
F001F8
F001F8
ENDCHAR
STARTCHAR 004F
ENCODING 79
SWIDTH 585 0
DWIDTH 26 0
BBX 21 33 3 0
BITMAP
01FC00
07FF00
0FFF80
1F07C0
3E03E0
3C01E0
7800F0
7800F0
7800F0
7800F0
F00078
F00078
F00078
F00078
F00078
F00078
F00078
F00078
F00078
F00078
F00078
F00078
F00078
7000F0
7800F0
7800F0
7800F0
3C01E0
3E03E0
1F07C0
0FFF80
07FF00
01FC00
ENDCHAR
STARTCHAR 0050
ENCODING 80
SWIDTH 585 0
DWIDTH 26 0
BBX 21 32 4 0
BITMAP
FFFC00
FFFF80
FFFFC0
F007E0
F001F0
F000F0
F000F8
F00078
F00078
F00078
F00078
F00078
F000F8
F000F0
F001F0
F007E0
FFFFC0
FFFF80
FFFC00
F00000
F00000
F00000
F00000
F00000
F00000
F00000
F00000
F00000
F00000
F00000
F00000
F00000
ENDCHAR
STARTCHAR 0051
ENCODING 81
SWIDTH 585 0
DWIDTH 26 0
BBX 21 39 3 -6
BITMAP
01FC00
07FF00
0FFF80
1F07C0
3E03E0
3C01E0
7800F0
7800F0
7800F0
7800F0
F00078
F00078
F00078
F00078
F00078
F00078
F00078
F00078
F00078
F00078
F00078
F00078
F00078
7000F0
7800F0
7800F0
7800F0
3C01E0
3E03E0
1F07C0
0FFFC0
07FF00
01FF00
000F80
0007C0
0003E0
0003F0
0001C0
000080
ENDCHAR
STARTCHAR 0052
ENCODING 82
SWIDTH 585 0
DWIDTH 26 0
BBX 24 32 3 0
BITMAP
FFF800
FFFF00
FFFF80
F00FC0
F003E0
F001E0
F001F0
F000F0
F000F0
F000F0
F000F0
F000F0
F000F0
F001E0
F003E0
F00FC0
FFFF80
FFFE00
FFFF00
F01F80
F007C0
F003C0
F003E0
F001E0
F001F0
F000F0
F000F8
F00078
F0007C
F0003E
F0001E
F0001F
ENDCHAR
STARTCHAR 0053
ENCODING 83
SWIDTH 585 0
DWIDTH 26 0
BBX 21 33 3 0
BITMAP
01FE00
0FFFC0
1FFFE0
3F03E0
7C0060
780020
F00000
F00000
F00000
F00000
F00000
F80000
F80000
7E0000
3FE000
3FFC00
0FFF80
03FFC0
003FE0
0003F0
0001F0
0000F8
000078
000078
000078
000078
000078
8000F0
E001F0
FC07E0
FFFFC0
7FFF80
07FC00
ENDCHAR
STARTCHAR 0054
ENCODING 84
SWIDTH 585 0
DWIDTH 26 0
BBX 24 32 1 0
BITMAP
FFFFFF
FFFFFF
FFFFFF
003C00
003C00
003C00
003C00
003C00
003C00
003C00
003C00
003C00
003C00
003C00
003C00
003C00
003C00
003C00
003C00
003C00
003C00
003C00
003C00
003C00
003C00
003C00
003C00
003C00
003C00
003C00
003C00
003C00
ENDCHAR
STARTCHAR 0055
ENCODING 85
SWIDTH 585 0
DWIDTH 26 0
BBX 20 32 3 0
BITMAP
F000F0
F000F0
F000F0
F000F0
F000F0
F000F0
F000F0
F000F0
F000F0
F000F0
F000F0
F000F0
F000F0
F000F0
F000F0
F000F0
F000F0
F000F0
F000F0
F000F0
F000F0
F000F0
F000F0
F000F0
F000F0
F000F0
7801E0
7801E0
3E07C0
1FFF80
0FFF00
03FC00
ENDCHAR
STARTCHAR 0056
ENCODING 86
SWIDTH 585 0
DWIDTH 26 0
BBX 24 32 1 0
BITMAP
F0000F
F8001F
78001E
78001E
78003E
3C003C
3C003C
3C003C
3E007C
1E0078
1E0078
1F00F8
0F00F0
0F00F0
0F00F0
0781E0
0781E0
0781E0
07C3E0
03C3C0
03C3C0
03C7C0
01E780
01E780
01E780
01FF80
00FF00
00FF00
00FF00
007E00
007E00
007E00
ENDCHAR
STARTCHAR 0057
ENCODING 87
SWIDTH 585 0
DWIDTH 26 0
BBX 26 32 0 0
BITMAP
F00003C0
F00003C0
F00003C0
780007C0
78000780
78000780
78000780
78000780
78000780
781E0780
3C3F0F00
3C3F0F00
3C3F0F00
3C3F0F00
3C3F0F00
3C7B8F00
3C738F00
1E739E00
1E739E00
1E739E00
1EE1DE00
1EE1DE00
1EE1DE00
1FE1FE00
0FC0FC00
0FC0FC00
0FC0FC00
0FC0FC00
0FC0FC00
0F807C00
0F807C00
07807800
ENDCHAR
STARTCHAR 0058
ENCODING 88
SWIDTH 585 0
DWIDTH 26 0
BBX 26 32 1 0
BITMAP
7C000F80
3E001F00
1E001E00
1F003E00
0F807C00
0F807800
07C0F800
03C1F000
03E1F000
01F3E000
00F7C000
00FFC000
007F8000
007F0000
003F0000
003F0000
003F0000
007F8000
00FF8000
00F7C000
01F3E000
03E1E000
03E1F000
07C0F800
0780F800
0F807C00
1F003C00
1E003E00
3E001F00
3C000F00
7C000F80
F80007C0
ENDCHAR
STARTCHAR 0059
ENCODING 89
SWIDTH 585 0
DWIDTH 26 0
BBX 24 32 1 0
BITMAP
F8001F
78001E
7C003E
3E007C
1E0078
1F00F8
0F00F0
0F81F0
0781E0
07C3E0
03E7C0
01E780
01FF80
00FF00
00FF00
007E00
007E00
003C00
003C00
003C00
003C00
003C00
003C00
003C00
003C00
003C00
003C00
003C00
003C00
003C00
003C00
003C00
ENDCHAR
STARTCHAR 005A
ENCODING 90
SWIDTH 585 0
DWIDTH 26 0
BBX 22 32 3 0
BITMAP
FFFFFC
FFFFFC
FFFFFC
00007C
0000F8
0000F8
0001F0
0003E0
0003E0
0007C0
000F80
000F00
001F00
003E00
003C00
007C00
00F800
00F000
01F000
03E000
03C000
07C000
0F8000
1F0000
1F0000
3E0000
7C0000
7C0000
F80000
FFFFFC
FFFFFC
FFFFFC
ENDCHAR
STARTCHAR 005B
ENCODING 91
SWIDTH 585 0
DWIDTH 26 0
BBX 9 39 10 -6
BITMAP
FF80
FF80
FF80
F000
F000
F000
F000
F000
F000
F000
F000
F000
F000
F000
F000
F000
F000
F000
F000
F000
F000
F000
F000
F000
F000
F000
F000
F000
F000
F000
F000
F000
F000
F000
F000
F000
FF80
FF80
FF80
ENDCHAR
STARTCHAR 005C
ENCODING 92
SWIDTH 585 0
DWIDTH 26 0
BBX 21 36 2 -4
BITMAP
F00000
780000
780000
3C0000
3C0000
1E0000
1E0000
0F0000
0F0000
0F0000
078000
078000
03C000
03C000
01E000
01E000
00F000
00F000
007800
007800
003C00
003C00
001E00
001E00
000F00
000F00
000780
000780
000780
0003C0
0003C0
0001E0
0001E0
0000F0
0000F0
000078
ENDCHAR
STARTCHAR 005D
ENCODING 93
SWIDTH 585 0
DWIDTH 26 0
BBX 9 39 8 -6
BITMAP
FF80
FF80
FF80
0780
0780
0780
0780
0780
0780
0780
0780
0780
0780
0780
0780
0780
0780
0780
0780
0780
0780
0780
0780
0780
0780
0780
0780
0780
0780
0780
0780
0780
0780
0780
0780
0780
FF80
FF80
FF80
ENDCHAR
STARTCHAR 005E
ENCODING 94
SWIDTH 585 0
DWIDTH 26 0
BBX 23 12 2 20
BITMAP
007C00
00FE00
00FE00
01FF00
03EF80
07C7C0
0F83E0
0F01E0
1E00F0
3C0078
78003C
F0001E
ENDCHAR
STARTCHAR 005F
ENCODING 95
SWIDTH 585 0
DWIDTH 26 0
BBX 22 3 0 -10
BITMAP
FFFFFC
FFFFFC
FFFFFC
ENDCHAR
STARTCHAR 0060
ENCODING 96
SWIDTH 585 0
DWIDTH 26 0
BBX 10 8 6 27
BITMAP
F800
7800
3C00
1E00
0E00
0700
0380
03C0
ENDCHAR
STARTCHAR 0061
ENCODING 97
SWIDTH 585 0
DWIDTH 26 0
BBX 21 25 3 0
BITMAP
07FE00
3FFF80
3FFFC0
3C03E0
2001F0
0000F0
000078
000078
000078
000078
03FFF8
0FFFF8
3FFFF8
7F0078
780078
F80078
F00078
F000F8
F000F8
F001F8
F803F8
7E0FF8
3FFF78
1FFE78
07F078
ENDCHAR
STARTCHAR 0062
ENCODING 98
SWIDTH 585 0
DWIDTH 26 0
BBX 21 33 4 0
BITMAP
F00000
F00000
F00000
F00000
F00000
F00000
F00000
F00000
F0FC00
F3FF00
F7FFC0
FF07C0
FC01E0
FC01F0
F800F0
F800F0
F00078
F00078
F00078
F00078
F00078
F00078
F00078
F00078
F00078
F800F0
F800F0
FC01F0
FC01E0
FF07C0
F7FFC0
F3FF00
F0FC00
ENDCHAR
STARTCHAR 0063
ENCODING 99
SWIDTH 585 0
DWIDTH 26 0
BBX 19 25 4 0
BITMAP
00FF00
03FFC0
0FFFE0
1F81E0
3E0060
3C0020
780000
780000
F80000
F00000
F00000
F00000
F00000
F00000
F00000
F00000
F80000
780000
780000
3C0020
3E0060
1F81E0
0FFFE0
03FFC0
00FF00
ENDCHAR
STARTCHAR 0064
ENCODING 100
SWIDTH 585 0
DWIDTH 26 0
BBX 21 33 3 0
BITMAP
000078
000078
000078
000078
000078
000078
000078
000078
01F878
07FE78
1FFF78
1F07F8
3C01F8
7C01F8
7800F8
7800F8
F00078
F00078
F00078
F00078
F00078
F00078
F00078
F00078
F00078
7800F8
7800F8
7C01F8
3C01F8
1F07F8
1FFF78
07FE78
01F878
ENDCHAR
STARTCHAR 0065
ENCODING 101
SWIDTH 585 0
DWIDTH 26 0
BBX 21 25 3 0
BITMAP
00FC00
07FF00
0FFFC0
1F07E0
3E01E0
3C00F0
7800F0
780070
F00078
F00078
F00078
FFFFF8
FFFFF8
FFFFF8
F00000
F00000
F00000
700000
780000
380000
3C0010
1F00F0
0FFFF0
07FFF0
00FF80
ENDCHAR
STARTCHAR 0066
ENCODING 102
SWIDTH 585 0
DWIDTH 26 0
BBX 18 33 5 0
BITMAP
003FC0
00FFC0
01FFC0
01E000
03C000
03C000
03C000
03C000
03C000
FFFFC0
FFFFC0
FFFFC0
03C000
03C000
03C000
03C000
03C000
03C000
03C000
03C000
03C000
03C000
03C000
03C000
03C000
03C000
03C000
03C000
03C000
03C000
03C000
03C000
03C000
ENDCHAR
STARTCHAR 0067
ENCODING 103
SWIDTH 585 0
DWIDTH 26 0
BBX 21 34 3 -9
BITMAP
01F800
07FE78
0FFF78
1F07F8
3E01F8
7C01F8
7800F8
7800F8
F00078
F00078
F00078
F00078
F00078
F00078
F00078
F00078
F00078
7800F8
7800F8
7C01F8
3C01F8
1F07F8
1FFF78
07FE78
01F878
000078
000078
0000F0
0000F0
1001F0
1E03E0
1FFFC0
1FFF80
07FC00
ENDCHAR
STARTCHAR 0068
ENCODING 104
SWIDTH 585 0
DWIDTH 26 0
BBX 18 33 4 0
BITMAP
F00000
F00000
F00000
F00000
F00000
F00000
F00000
F00000
F0FC00
F3FE00
F7FF00
FE0F80
FC0780
F807C0
F803C0
F003C0
F003C0
F003C0
F003C0
F003C0
F003C0
F003C0
F003C0
F003C0
F003C0
F003C0
F003C0
F003C0
F003C0
F003C0
F003C0
F003C0
F003C0
ENDCHAR
STARTCHAR 0069
ENCODING 105
SWIDTH 585 0
DWIDTH 26 0
BBX 20 33 4 0
BITMAP
00F000
00F000
00F000
00F000
00F000
000000
000000
000000
000000
3FF000
3FF000
3FF000
00F000
00F000
00F000
00F000
00F000
00F000
00F000
00F000
00F000
00F000
00F000
00F000
00F000
00F000
00F000
00F000
00F000
00F000
FFFFF0
FFFFF0
FFFFF0
ENDCHAR
STARTCHAR 006A
ENCODING 106
SWIDTH 585 0
DWIDTH 26 0
BBX 13 42 4 -9
BITMAP
0078
0078
0078
0078
0078
0000
0000
0000
0000
3FF8
3FF8
3FF8
0078
0078
0078
0078
0078
0078
0078
0078
0078
0078
0078
0078
0078
0078
0078
0078
0078
0078
0078
0078
0078
0078
0078
0078
0078
00F0
01F0
FFE0
FFC0
FF00
ENDCHAR
STARTCHAR 006B
ENCODING 107
SWIDTH 585 0
DWIDTH 26 0
BBX 21 33 5 0
BITMAP
F00000
F00000
F00000
F00000
F00000
F00000
F00000
F00000
F00000
F003F0
F007E0
F00FC0
F01F80
F03F00
F07E00
F0FC00
F1F000
F3E000
FFC000
FFE000
FFF000
FFF000
FCF800
F87C00
F03E00
F03E00
F01F00
F00F80
F007C0
F007C0
F003E0
F001F0
F000F8
ENDCHAR
STARTCHAR 006C
ENCODING 108
SWIDTH 585 0
DWIDTH 26 0
BBX 20 33 2 0
BITMAP
FFF000
FFF000
FFF000
00F000
00F000
00F000
00F000
00F000
00F000
00F000
00F000
00F000
00F000
00F000
00F000
00F000
00F000
00F000
00F000
00F000
00F000
00F000
00F000
00F000
00F000
00F000
00F000
00F000
007800
007C00
003FF0
001FF0
000FF0
ENDCHAR
STARTCHAR 006D
ENCODING 109
SWIDTH 585 0
DWIDTH 26 0
BBX 22 25 2 0
BITMAP
03C3E0
F7F7F0
FFFFF8
F8FC78
F87C3C
F0783C
F0783C
F0783C
F0783C
F0783C
F0783C
F0783C
F0783C
F0783C
F0783C
F0783C
F0783C
F0783C
F0783C
F0783C
F0783C
F0783C
F0783C
F0783C
F0783C
ENDCHAR
STARTCHAR 006E
ENCODING 110
SWIDTH 585 0
DWIDTH 26 0
BBX 18 25 4 0
BITMAP
00FC00
F3FE00
F7FF00
FE0F80
FC0780
F807C0
F803C0
F003C0
F003C0
F003C0
F003C0
F003C0
F003C0
F003C0
F003C0
F003C0
F003C0
F003C0
F003C0
F003C0
F003C0
F003C0
F003C0
F003C0
F003C0
ENDCHAR
STARTCHAR 006F
ENCODING 111
SWIDTH 585 0
DWIDTH 26 0
BBX 21 25 3 0
BITMAP
01FC00
07FF00
1FFFC0
3F07E0
3C01E0
7C01F0
7800F0
7800F0
F00078
F00078
F00078
F00078
F00078
F00078
F00078
F00078
F00078
7800F0
7800F0
7C01F0
3C01E0
3F07E0
1FFFC0
07FF00
01FC00
ENDCHAR
STARTCHAR 0070
ENCODING 112
SWIDTH 585 0
DWIDTH 26 0
BBX 21 34 4 -9
BITMAP
00FC00
F3FF00
F7FFC0
FF07C0
FC01E0
FC01F0
F800F0
F800F0
F00078
F00078
F00078
F00078
F00078
F00078
F00078
F00078
F00078
F800F0
F800F0
FC01F0
FC01E0
FF07C0
F7FFC0
F3FF00
F0FC00
F00000
F00000
F00000
F00000
F00000
F00000
F00000
F00000
F00000
ENDCHAR
STARTCHAR 0071
ENCODING 113
SWIDTH 585 0
DWIDTH 26 0
BBX 21 34 3 -9
BITMAP
01F800
07FE78
1FFF78
1F07F8
3C01F8
7C01F8
7800F8
7800F8
F00078
F00078
F00078
F00078
F00078
F00078
F00078
F00078
F00078
7800F8
7800F8
7C01F8
3C01F8
1F07F8
1FFF78
07FE78
01F878
000078
000078
000078
000078
000078
000078
000078
000078
000078
ENDCHAR
STARTCHAR 0072
ENCODING 114
SWIDTH 585 0
DWIDTH 26 0
BBX 17 25 8 0
BITMAP
007E00
F1FF00
F3FF80
F78380
FE0080
FC0000
F80000
F80000
F80000
F00000
F00000
F00000
F00000
F00000
F00000
F00000
F00000
F00000
F00000
F00000
F00000
F00000
F00000
F00000
F00000
ENDCHAR
STARTCHAR 0073
ENCODING 115
SWIDTH 585 0
DWIDTH 26 0
BBX 17 25 5 0
BITMAP
07FC00
1FFF00
3FFF00
7C0700
F80100
F00000
F00000
F00000
F80000
FC0000
7FC000
7FF800
1FFE00
07FF00
007F00
001F80
000780
000780
000780
000780
800F00
F01F00
FFFE00
FFFC00
1FF000
ENDCHAR
STARTCHAR 0074
ENCODING 116
SWIDTH 585 0
DWIDTH 26 0
BBX 19 31 3 0
BITMAP
03C000
03C000
03C000
03C000
03C000
03C000
03C000
FFFFE0
FFFFE0
FFFFE0
03C000
03C000
03C000
03C000
03C000
03C000
03C000
03C000
03C000
03C000
03C000
03C000
03C000
03C000
03C000
03C000
03E000
01F000
01FFE0
00FFE0
003FE0
ENDCHAR
STARTCHAR 0075
ENCODING 117
SWIDTH 585 0
DWIDTH 26 0
BBX 18 24 4 0
BITMAP
F003C0
F003C0
F003C0
F003C0
F003C0
F003C0
F003C0
F003C0
F003C0
F003C0
F003C0
F003C0
F003C0
F003C0
F003C0
F003C0
F003C0
F007C0
F807C0
780FC0
7C1FC0
3FFBC0
3FF3C0
0FC3C0
ENDCHAR
STARTCHAR 0076
ENCODING 118
SWIDTH 585 0
DWIDTH 26 0
BBX 22 24 2 0
BITMAP
F0003C
780078
780078
7800F8
3C00F0
3C00F0
3E01F0
1E01E0
1E01E0
1F03E0
0F03C0
0F03C0
0F87C0
078780
078780
07CF80
03CF00
03CF00
01FE00
01FE00
01FE00
00FC00
00FC00
00FC00
ENDCHAR
STARTCHAR 0077
ENCODING 119
SWIDTH 585 0
DWIDTH 26 0
BBX 26 24 0 0
BITMAP
F00003C0
F00003C0
78000780
78000780
78000780
78000780
7C000F80
3C1E0F00
3C1E0F00
3C1E0F00
3E3F1F00
1E3F1E00
1E3F1E00
1E331E00
1E739E00
0F73BC00
0F61BC00
0FE1FC00
0FE1FC00
0FE1FC00
07C0F800
07C0F800
07C0F800
07807800
ENDCHAR
STARTCHAR 0078
ENCODING 120
SWIDTH 585 0
DWIDTH 26 0
BBX 23 24 2 0
BITMAP
7C007C
3E00F8
1F01F0
0F83E0
0F83E0
07C7C0
03EF80
03EF80
01FF00
00FE00
007C00
007C00
007C00
00FE00
01FF00
03EF80
03EF80
07C7C0
0F83E0
1F01F0
1F01F0
3E00F8
7C007C
F8003E
ENDCHAR
STARTCHAR 0079
ENCODING 121
SWIDTH 585 0
DWIDTH 26 0
BBX 23 33 2 -9
BITMAP
F8003E
78003C
78003C
7C007C
3C0078
3E0078
1E00F0
1E00F0
1F01F0
0F01E0
0F81E0
0783E0
0783C0
07C7C0
03C780
03E780
01EF80
01EF00
00FF00
00FE00
00FE00
007E00
007C00
003C00
007800
007800
00F800
00F000
01F000
03E000
3FE000
3FC000
3F0000
ENDCHAR
STARTCHAR 007A
ENCODING 122
SWIDTH 585 0
DWIDTH 26 0
BBX 18 24 4 0
BITMAP
7FFFC0
7FFFC0
7FFFC0
0007C0
000F80
001F80
001F00
003E00
007C00
00F800
00F800
01F000
03E000
07C000
0FC000
0F8000
1F0000
3E0000
7E0000
7C0000
F80000
FFFFC0
FFFFC0
FFFFC0
ENDCHAR
STARTCHAR 007B
ENCODING 123
SWIDTH 585 0
DWIDTH 26 0
BBX 17 41 4 -8
BITMAP
001F80
007F80
00FF80
00F800
01F000
01E000
01E000
01E000
01E000
01E000
01E000
01E000
01E000
01E000
01E000
01E000
01E000
03C000
07C000
FF8000
FE0000
FF8000
07C000
03C000
01E000
01E000
01E000
01E000
01E000
01E000
01E000
01E000
01E000
01E000
01E000
01E000
01E000
00F000
00FF80
007F80
001F80
ENDCHAR
STARTCHAR 007C
ENCODING 124
SWIDTH 585 0
DWIDTH 26 0
BBX 4 44 11 -11
BITMAP
F0
F0
F0
F0
F0
F0
F0
F0
F0
F0
F0
F0
F0
F0
F0
F0
F0
F0
F0
F0
F0
F0
F0
F0
F0
F0
F0
F0
F0
F0
F0
F0
F0
F0
F0
F0
F0
F0
F0
F0
F0
F0
F0
F0
ENDCHAR
STARTCHAR 007D
ENCODING 125
SWIDTH 585 0
DWIDTH 26 0
BBX 17 41 5 -8
BITMAP
FC0000
FF0000
FF8000
0F8000
07C000
03C000
03C000
03C000
03C000
03C000
03C000
03C000
03C000
03C000
03C000
03C000
03C000
01E000
01F000
00FF80
003F80
00FF80
01F000
01E000
03C000
03C000
03C000
03C000
03C000
03C000
03C000
03C000
03C000
03C000
03C000
03C000
07C000
0F8000
FF8000
FF0000
FC0000
ENDCHAR
STARTCHAR 007E
ENCODING 126
SWIDTH 585 0
DWIDTH 26 0
BBX 23 7 2 10
BITMAP
0FC002
3FF006
FFFC1E
FFFFFE
F07FFE
C00FF8
8003E0
ENDCHAR
STARTCHAR 00A0
ENCODING 160
SWIDTH 585 0
DWIDTH 26 0
BBX 1 1 0 0
BITMAP
00
ENDCHAR
STARTCHAR 00A1
ENCODING 161
SWIDTH 585 0
DWIDTH 26 0
BBX 4 32 11 0
BITMAP
F0
F0
F0
F0
F0
00
00
00
00
00
F0
F0
F0
F0
F0
F0
F0
F0
F0
F0
F0
F0
F0
F0
F0
F0
F0
F0
F0
F0
F0
F0
ENDCHAR
STARTCHAR 00A2
ENCODING 162
SWIDTH 585 0
DWIDTH 26 0
BBX 18 38 5 -7
BITMAP
003000
003000
003000
003000
003000
003000
00FF00
07FFC0
0FFFC0
1F31C0
3E3040
3C3000
783000
783000
F03000
F03000
F03000
F03000
F03000
F03000
F03000
F03000
F03000
783000
783000
3C3000
3E3040
1F31C0
0FFFC0
07FFC0
01FF00
003000
003000
003000
003000
003000
003000
003000
ENDCHAR
STARTCHAR 00A3
ENCODING 163
SWIDTH 585 0
DWIDTH 26 0
BBX 21 33 3 0
BITMAP
001FE0
007FF8
00FFF8
01F038
03E008
03C000
03C000
078000
078000
078000
078000
078000
078000
078000
078000
078000
078000
7FFF80
7FFF80
7FFF80
078000
078000
078000
078000
078000
078000
078000
078000
078000
078000
FFFFF8
FFFFF8
FFFFF8
ENDCHAR
STARTCHAR 00A4
ENCODING 164
SWIDTH 585 0
DWIDTH 26 0
BBX 19 19 5 4
BITMAP
400040
E000E0
79F3C0
3FFF80
1FFF80
1E0F00
1C0700
380380
380380
380380
380380
380380
1C0700
1E0F00
3FFF80
3FFF80
79F3C0
E000E0
400040
ENDCHAR
STARTCHAR 00A5
ENCODING 165
SWIDTH 585 0
DWIDTH 26 0
BBX 24 32 1 0
BITMAP
F8001F
7C003E
7C003E
3E007C
1E0078
1F00F8
0F00F0
0F81E0
07C3E0
03C3C0
03E7C0
7FE7FE
7FFFFE
7FFFFE
00FF00
007E00
003C00
003C00
7FFFFE
7FFFFE
7FFFFE
003C00
003C00
003C00
003C00
003C00
003C00
003C00
003C00
003C00
003C00
003C00
ENDCHAR
STARTCHAR 00A6
ENCODING 166
SWIDTH 585 0
DWIDTH 26 0
BBX 4 38 11 -8
BITMAP
F0
F0
F0
F0
F0
F0
F0
F0
F0
F0
F0
F0
F0
F0
F0
F0
00
00
00
00
00
00
F0
F0
F0
F0
F0
F0
F0
F0
F0
F0
F0
F0
F0
F0
F0
F0
ENDCHAR
STARTCHAR 00A7
ENCODING 167
SWIDTH 585 0
DWIDTH 26 0
BBX 18 37 4 -4
BITMAP
03FC00
1FFF00
3FFF00
3E0300
7C0000
780000
780000
7C0000
3E0000
1F0000
0FC000
1FF000
3FF800
78FE00
F07F00
F01F80
F00F80
F007C0
F803C0
F803C0
7C03C0
3F03C0
1F8780
0FE780
07FF00
01FC00
007E00
003F00
000F00
000780
000780
000780
000F80
301F00
3FFF00
3FFC00
0FF000
ENDCHAR
STARTCHAR 00A8
ENCODING 168
SWIDTH 585 0
DWIDTH 26 0
BBX 12 4 7 29
BITMAP
F0F0
F0F0
F0F0
F0F0
ENDCHAR
STARTCHAR 00A9
ENCODING 169
SWIDTH 585 0
DWIDTH 26 0
BBX 26 26 0 3
BITMAP
007F8000
01FFE000
07C0F800
0E001C00
1C000E00
383F8700
30FFC300
61E04180
63C00180
E38001C0
C70000C0
C70000C0
C70000C0
C70000C0
C70000C0
C70000C0
E38001C0
63C00180
61E04380
30FFC300
383F8700
1C000E00
0E001C00
07C0F800
01FFE000
007F8000
ENDCHAR
STARTCHAR 00AA
ENCODING 170
SWIDTH 585 0
DWIDTH 26 0
BBX 16 22 5 11
BITMAP
1FE0
7FF8
603C
000E
000E
0007
0007
0FFF
3FFF
7807
F007
E007
E00F
E00F
F01F
783F
3FF7
0FC7
0000
0000
FFFF
FFFF
ENDCHAR
STARTCHAR 00AB
ENCODING 171
SWIDTH 585 0
DWIDTH 26 0
BBX 20 20 3 3
BITMAP
004010
00C030
01C070
03C0F0
07C1F0
0F83C0
1F0780
3C0F00
781E00
F03C00
F03C00
781E00
3C0F00
1E0780
0F83C0
07C1F0
03C0F0
01C070
00C030
004010
ENDCHAR
STARTCHAR 00AC
ENCODING 172
SWIDTH 585 0
DWIDTH 26 0
BBX 23 11 2 8
BITMAP
FFFFFE
FFFFFE
FFFFFE
FFFFFE
00001E
00001E
00001E
00001E
00001E
00001E
00001E
ENDCHAR
STARTCHAR 00AD
ENCODING 173
SWIDTH 585 0
DWIDTH 26 0
BBX 11 4 8 10
BITMAP
FFE0
FFE0
FFE0
FFE0
ENDCHAR
STARTCHAR 00AE
ENCODING 174
SWIDTH 585 0
DWIDTH 26 0
BBX 26 26 0 3
BITMAP
007F8000
01FFE000
07C0F800
0E001C00
1C000E00
38FF0700
30FFC300
60E1E180
60E0E180
E0E0E1C0
C0E0E0C0
C0E1C0C0
C0FFC0C0
C0FE00C0
C0EF00C0
C0E780C0
E0E3C1C0
60E1C180
60E1E380
30E0E300
38E0F700
1C000E00
0E001C00
07C0F800
01FFE000
007F8000
ENDCHAR
STARTCHAR 00AF
ENCODING 175
SWIDTH 585 0
DWIDTH 26 0
BBX 13 3 7 30
BITMAP
FFF8
FFF8
FFF8
ENDCHAR
STARTCHAR 00B0
ENCODING 176
SWIDTH 585 0
DWIDTH 26 0
BBX 14 14 6 19
BITMAP
0FC0
1FE0
3FF0
7878
F03C
E01C
E01C
E01C
E01C
F03C
7878
7FF0
1FE0
0FC0
ENDCHAR
STARTCHAR 00B1
ENCODING 177
SWIDTH 585 0
DWIDTH 26 0
BBX 24 25 1 0
BITMAP
003C00
003C00
003C00
003C00
003C00
003C00
003C00
FFFFFF
FFFFFF
FFFFFF
FFFFFF
003C00
003C00
003C00
003C00
003C00
003C00
003C00
000000
000000
000000
FFFFFF
FFFFFF
FFFFFF
FFFFFF
ENDCHAR
STARTCHAR 00B2
ENCODING 178
SWIDTH 585 0
DWIDTH 26 0
BBX 12 18 7 15
BITMAP
3F00
FFC0
C1E0
0070
0070
0070
0070
00F0
01E0
03C0
07C0
0F80
1F00
3E00
7C00
F000
FFF0
FFF0
ENDCHAR
STARTCHAR 00B3
ENCODING 179
SWIDTH 585 0
DWIDTH 26 0
BBX 13 18 7 15
BITMAP
1FC0
7FF0
60F8
0038
0038
0038
00F0
1FE0
1FE0
00F0
0078
0038
0038
0038
0078
C0F0
FFE0
3F80
ENDCHAR
STARTCHAR 00B4
ENCODING 180
SWIDTH 585 0
DWIDTH 26 0
BBX 10 8 10 27
BITMAP
03C0
0780
0F00
1E00
1C00
3800
7800
F000
ENDCHAR
STARTCHAR 00B5
ENCODING 181
SWIDTH 585 0
DWIDTH 26 0
BBX 21 33 4 -9
BITMAP
F003C0
F003C0
F003C0
F003C0
F003C0
F003C0
F003C0
F003C0
F003C0
F003C0
F003C0
F003C0
F003C0
F003C0
F003C0
F003C0
F003C0
F007C0
F807C0
F80FC0
FE1FF8
FFFDF8
F7F9F8
F3F0F0
F00000
F00000
F00000
F00000
F00000
F00000
F00000
F00000
F00000
ENDCHAR
STARTCHAR 00B6
ENCODING 182
SWIDTH 585 0
DWIDTH 26 0
BBX 20 36 2 -4
BITMAP
01FFF0
0FFFF0
1FFFF0
3FF870
7FF870
7FF870
FFF870
FFF870
FFF870
FFF870
FFF870
FFF870
7FF870
7FF870
3FF870
1FF870
0FF870
01F870
003870
003870
003870
003870
003870
003870
003870
003870
003870
003870
003870
003870
003870
003870
003870
003870
003870
003870
ENDCHAR
STARTCHAR 00B7
ENCODING 183
SWIDTH 585 0
DWIDTH 26 0
BBX 5 7 11 12
BITMAP
F8
F8
F8
F8
F8
F8
F8
ENDCHAR
STARTCHAR 00B8
ENCODING 184
SWIDTH 585 0
DWIDTH 26 0
BBX 9 8 8 -8
BITMAP
0E00
0700
0380
0380
8780
FF80
FF00
FE00
ENDCHAR
STARTCHAR 00B9
ENCODING 185
SWIDTH 585 0
DWIDTH 26 0
BBX 12 18 7 15
BITMAP
3F00
FF00
E700
0700
0700
0700
0700
0700
0700
0700
0700
0700
0700
0700
0700
0700
7FF0
7FF0
ENDCHAR
STARTCHAR 00BA
ENCODING 186
SWIDTH 585 0
DWIDTH 26 0
BBX 16 22 5 11
BITMAP
07E0
1FF8
3C3C
781E
700E
F00E
E007
E007
E007
E007
E007
E007
E00F
700E
781E
3C3C
1FF8
07E0
0000
0000
7FFE
7FFE
ENDCHAR
STARTCHAR 00BB
ENCODING 187
SWIDTH 585 0
DWIDTH 26 0
BBX 20 20 4 3
BITMAP
802000
C03000
E03800
F03C00
F83E00
3C1F00
1E0780
0F03C0
0781E0
03C0F0
03C0F0
0781E0
0F03C0
1E0F80
7C1F00
F83E00
F03C00
E03800
C03000
802000
ENDCHAR
STARTCHAR 00BC
ENCODING 188
SWIDTH 585 0
DWIDTH 26 0
BBX 23 41 1 -5
BITMAP
3F0000
FF0000
E70000
070000
070000
070000
070000
070000
070000
070000
070000
070000
070000
070000
070000
070000
7FF000
7FF006
00007E
0007F8
007F80
03FC00
3FC000
FC00F0
C000F0
0001F0
0003F0
000370
000670
000E70
000C70
001C70
003870
003070
007070
007FFE
007FFE
000070
000070
000070
000070
ENDCHAR
STARTCHAR 00BD
ENCODING 189
SWIDTH 585 0
DWIDTH 26 0
BBX 23 41 1 -5
BITMAP
3F0000
FF0000
E70000
070000
070000
070000
070000
070000
070000
070000
070000
070000
070000
070000
070000
070000
7FF000
7FF006
00007E
0007F8
007F80
03FC00
3FC000
FC0FC0
C03FF0
003078
00001C
00001C
00001C
00001C
00003C
000078
0000F0
0001F0
0003E0
0007C0
000F80
001F00
003C00
003FFC
003FFC
ENDCHAR
STARTCHAR 00BE
ENCODING 190
SWIDTH 585 0
DWIDTH 26 0
BBX 23 41 1 -5
BITMAP
0FE000
3FF800
307C00
001C00
001C00
001C00
007800
0FF000
0FF000
007800
003C00
001C00
001C00
001C00
003C00
607800
7FF000
1FC006
00007E
0007F8
007F80
03FC00
3FC000
FC00F0
C000F0
0001F0
0003F0
000370
000670
000E70
000C70
001C70
003870
003070
007070
007FFE
007FFE
000070
000070
000070
000070
ENDCHAR
STARTCHAR 00BF
ENCODING 191
SWIDTH 585 0
DWIDTH 26 0
BBX 17 32 4 0
BITMAP
00F000
00F000
00F000
00F000
00F000
000000
000000
000000
00F000
00F000
00F000
00F000
00F000
00F000
01F000
03E000
07E000
0FC000
1F8000
3F0000
7E0000
7C0000
F80000
F00000
F00000
F00000
F00080
780180
7C0F80
3FFF80
1FFF00
07F800
ENDCHAR
STARTCHAR 00C0
ENCODING 192
SWIDTH 585 0
DWIDTH 26 0
BBX 25 41 1 0
BITMAP
01E00000
00F00000
00780000
00380000
001C0000
001E0000
00000000
00000000
00000000
003E0000
007F0000
007F0000
007F0000
00FF8000
00F78000
00F78000
00F78000
01E3C000
01E3C000
01E3C000
03E1E000
03C1E000
03C1E000
07C1F000
0780F000
0780F000
0F80F800
0F007800
0F007800
0FFFF800
1FFFFC00
1FFFFC00
1E003C00
3E003E00
3C001E00
3C001E00
7C001F00
78000F00
78000F00
F8000F80
F0000780
ENDCHAR
STARTCHAR 00C1
ENCODING 193
SWIDTH 585 0
DWIDTH 26 0
BBX 25 41 1 0
BITMAP
00078000
000F0000
001E0000
001C0000
00380000
00780000
00000000
00000000
00000000
003E0000
007F0000
007F0000
007F0000
00FF8000
00F78000
00F78000
00F78000
01E3C000
01E3C000
01E3C000
03E1E000
03C1E000
03C1E000
07C1F000
0780F000
0780F000
0F80F800
0F007800
0F007800
0FFFF800
1FFFFC00
1FFFFC00
1E003C00
3E003E00
3C001E00
3C001E00
7C001F00
78000F00
78000F00
F8000F80
F0000780
ENDCHAR
STARTCHAR 00C2
ENCODING 194
SWIDTH 585 0
DWIDTH 26 0
BBX 25 41 1 0
BITMAP
003E0000
007F0000
00770000
00E38000
01C1C000
0380E000
00000000
00000000
00000000
003E0000
007F0000
007F0000
007F0000
00FF8000
00F78000
00F78000
00F78000
01E3C000
01E3C000
01E3C000
03E1E000
03C1E000
03C1E000
07C1F000
0780F000
0780F000
0F80F800
0F007800
0F007800
0FFFF800
1FFFFC00
1FFFFC00
1E003C00
3E003E00
3C001E00
3C001E00
7C001F00
78000F00
78000F00
F8000F80
F0000780
ENDCHAR
STARTCHAR 00C3
ENCODING 195
SWIDTH 585 0
DWIDTH 26 0
BBX 25 41 1 0
BITMAP
01E0E000
03F8E000
07FFE000
071FC000
07078000
00000000
00000000
00000000
00000000
003E0000
007F0000
007F0000
007F0000
00FF8000
00F78000
00F78000
00F78000
01E3C000
01E3C000
01E3C000
03E1E000
03C1E000
03C1E000
07C1F000
0780F000
0780F000
0F80F800
0F007800
0F007800
0FFFF800
1FFFFC00
1FFFFC00
1E003C00
3E003E00
3C001E00
3C001E00
7C001F00
78000F00
78000F00
F8000F80
F0000780
ENDCHAR
STARTCHAR 00C4
ENCODING 196
SWIDTH 585 0
DWIDTH 26 0
BBX 25 40 1 0
BITMAP
03C3C000
03C3C000
03C3C000
03C3C000
00000000
00000000
00000000
00000000
003E0000
007F0000
007F0000
007F0000
00FF8000
00F78000
00F78000
00F78000
01E3C000
01E3C000
01E3C000
03E1E000
03C1E000
03C1E000
07C1F000
0780F000
0780F000
0F80F800
0F007800
0F007800
0FFFF800
1FFFFC00
1FFFFC00
1E003C00
3E003E00
3C001E00
3C001E00
7C001F00
78000F00
78000F00
F8000F80
F0000780
ENDCHAR
STARTCHAR 00C5
ENCODING 197
SWIDTH 585 0
DWIDTH 26 0
BBX 25 41 1 0
BITMAP
003E0000
007F0000
00FF8000
01E3C000
01C1C000
01C1C000
01C1C000
01C1C000
00E38000
00FF8000
003E0000
003E0000
007F0000
007F0000
007F0000
00FF8000
00F78000
00F78000
01F7C000
01E3C000
01E3C000
03E3E000
03C1E000
03C1E000
07C1F000
0780F000
0780F000
0F80F800
0F007800
0FFFF800
1FFFFC00
1FFFFC00
1E003C00
3E003E00
3C001E00
3C001E00
7C001F00
78000F00
78000F00
F8000F80
F0000780
ENDCHAR
STARTCHAR 00C6
ENCODING 198
SWIDTH 585 0
DWIDTH 26 0
BBX 26 32 0 0
BITMAP
007FFFC0
007FFFC0
00FFFFC0
00F3C000
00F3C000
01F3C000
01E3C000
01E3C000
01E3C000
03E3C000
03C3C000
03C3C000
07C3C000
0783FF80
0783FF80
0783FF80
0F83C000
0F03C000
0F03C000
0F03C000
1FFFC000
1FFFC000
1FFFC000
3E03C000
3C03C000
3C03C000
3C03C000
7803C000
7803C000
7803FFC0
F803FFC0
F003FFC0
ENDCHAR
STARTCHAR 00C7
ENCODING 199
SWIDTH 585 0
DWIDTH 26 0
BBX 20 41 3 -8
BITMAP
007F80
01FFE0
07FFF0
0FC0F0
1F0030
1E0010
3C0000
3C0000
780000
780000
780000
F00000
F00000
F00000
F00000
F00000
F00000
F00000
F00000
F00000
F00000
F00000
780000
780000
780000
3C0000
3C0000
1E0010
1F0030
0FC0F0
07FFF0
01FFE0
007F80
001C00
000E00
000700
000700
010F00
01FF00
01FE00
01FC00
ENDCHAR
STARTCHAR 00C8
ENCODING 200
SWIDTH 585 0
DWIDTH 26 0
BBX 19 41 4 0
BITMAP
0F0000
078000
03C000
01C000
00E000
00F000
000000
000000
000000
FFFFE0
FFFFE0
FFFFE0
F00000
F00000
F00000
F00000
F00000
F00000
F00000
F00000
F00000
F00000
FFFFC0
FFFFC0
FFFFC0
F00000
F00000
F00000
F00000
F00000
F00000
F00000
F00000
F00000
F00000
F00000
F00000
F00000
FFFFE0
FFFFE0
FFFFE0
ENDCHAR
STARTCHAR 00C9
ENCODING 201
SWIDTH 585 0
DWIDTH 26 0
BBX 19 41 4 0
BITMAP
003C00
007800
00F000
00E000
01C000
03C000
000000
000000
000000
FFFFE0
FFFFE0
FFFFE0
F00000
F00000
F00000
F00000
F00000
F00000
F00000
F00000
F00000
F00000
FFFFC0
FFFFC0
FFFFC0
F00000
F00000
F00000
F00000
F00000
F00000
F00000
F00000
F00000
F00000
F00000
F00000
F00000
FFFFE0
FFFFE0
FFFFE0
ENDCHAR
STARTCHAR 00CA
ENCODING 202
SWIDTH 585 0
DWIDTH 26 0
BBX 19 41 4 0
BITMAP
01F000
03F800
03B800
071C00
0E0E00
1C0700
000000
000000
000000
FFFFE0
FFFFE0
FFFFE0
F00000
F00000
F00000
F00000
F00000
F00000
F00000
F00000
F00000
F00000
FFFFC0
FFFFC0
FFFFC0
F00000
F00000
F00000
F00000
F00000
F00000
F00000
F00000
F00000
F00000
F00000
F00000
F00000
FFFFE0
FFFFE0
FFFFE0
ENDCHAR
STARTCHAR 00CB
ENCODING 203
SWIDTH 585 0
DWIDTH 26 0
BBX 19 40 4 0
BITMAP
1E1E00
1E1E00
1E1E00
1E1E00
000000
000000
000000
000000
FFFFE0
FFFFE0
FFFFE0
F00000
F00000
F00000
F00000
F00000
F00000
F00000
F00000
F00000
F00000
FFFFC0
FFFFC0
FFFFC0
F00000
F00000
F00000
F00000
F00000
F00000
F00000
F00000
F00000
F00000
F00000
F00000
F00000
FFFFE0
FFFFE0
FFFFE0
ENDCHAR
STARTCHAR 00CC
ENCODING 204
SWIDTH 585 0
DWIDTH 26 0
BBX 18 41 4 0
BITMAP
0F0000
078000
03C000
01C000
00E000
00F000
000000
000000
000000
FFFFC0
FFFFC0
FFFFC0
01E000
01E000
01E000
01E000
01E000
01E000
01E000
01E000
01E000
01E000
01E000
01E000
01E000
01E000
01E000
01E000
01E000
01E000
01E000
01E000
01E000
01E000
01E000
01E000
01E000
01E000
FFFFC0
FFFFC0
FFFFC0
ENDCHAR
STARTCHAR 00CD
ENCODING 205
SWIDTH 585 0
DWIDTH 26 0
BBX 18 41 4 0
BITMAP
003C00
007800
00F000
00E000
01C000
03C000
000000
000000
000000
FFFFC0
FFFFC0
FFFFC0
01E000
01E000
01E000
01E000
01E000
01E000
01E000
01E000
01E000
01E000
01E000
01E000
01E000
01E000
01E000
01E000
01E000
01E000
01E000
01E000
01E000
01E000
01E000
01E000
01E000
01E000
FFFFC0
FFFFC0
FFFFC0
ENDCHAR
STARTCHAR 00CE
ENCODING 206
SWIDTH 585 0
DWIDTH 26 0
BBX 18 41 4 0
BITMAP
01F000
03F800
03B800
071C00
0E0E00
1C0700
000000
000000
000000
FFFFC0
FFFFC0
FFFFC0
01E000
01E000
01E000
01E000
01E000
01E000
01E000
01E000
01E000
01E000
01E000
01E000
01E000
01E000
01E000
01E000
01E000
01E000
01E000
01E000
01E000
01E000
01E000
01E000
01E000
01E000
FFFFC0
FFFFC0
FFFFC0
ENDCHAR
STARTCHAR 00CF
ENCODING 207
SWIDTH 585 0
DWIDTH 26 0
BBX 18 40 4 0
BITMAP
1E1E00
1E1E00
1E1E00
1E1E00
000000
000000
000000
000000
FFFFC0
FFFFC0
FFFFC0
01E000
01E000
01E000
01E000
01E000
01E000
01E000
01E000
01E000
01E000
01E000
01E000
01E000
01E000
01E000
01E000
01E000
01E000
01E000
01E000
01E000
01E000
01E000
01E000
01E000
01E000
FFFFC0
FFFFC0
FFFFC0
ENDCHAR
STARTCHAR 00D0
ENCODING 208
SWIDTH 585 0
DWIDTH 26 0
BBX 24 32 0 0
BITMAP
1FFC00
1FFF80
1FFFE0
1E03F0
1E00F8
1E007C
1E003C
1E001E
1E001E
1E001E
1E000E
1E000F
1E000F
1E000F
FFF80F
FFF80F
FFF80F
1E000F
1E000F
1E000F
1E000F
1E000F
1E001E
1E001E
1E001E
1E003C
1E007C
1E00F8
1E03F0
1FFFE0
1FFF80
1FFC00
ENDCHAR
STARTCHAR 00D1
ENCODING 209
SWIDTH 585 0
DWIDTH 26 0
BBX 21 41 3 0
BITMAP
078380
0FE380
1FFF80
1C7F00
1C1E00
000000
000000
000000
000000
FC0078
FC0078
FC0078
FE0078
FE0078
FF0078
FF0078
F78078
F78078
F3C078
F3C078
F1C078
F1E078
F0E078
F0F078
F0F078
F07878
F07878
F03878
F03C78
F01C78
F01E78
F01E78
F00F78
F00F78
F007F8
F007F8
F003F8
F003F8
F001F8
F001F8
F001F8
ENDCHAR
STARTCHAR 00D2
ENCODING 210
SWIDTH 585 0
DWIDTH 26 0
BBX 21 41 3 0
BITMAP
078000
03C000
01E000
00E000
007000
007800
000000
000000
01FC00
07FF00
0FFF80
1F07C0
3E03E0
3C01E0
7800F0
7800F0
7800F0
7800F0
F00078
F00078
F00078
F00078
F00078
F00078
F00078
F00078
F00078
F00078
F00078
F00078
F00078
7000F0
7800F0
7800F0
7800F0
3C01E0
3E03E0
1F07C0
0FFF80
07FF00
01FC00
ENDCHAR
STARTCHAR 00D3
ENCODING 211
SWIDTH 585 0
DWIDTH 26 0
BBX 21 41 3 0
BITMAP
001E00
003C00
007800
007000
00E000
01E000
000000
000000
01FC00
07FF00
0FFF80
1F07C0
3E03E0
3C01E0
7800F0
7800F0
7800F0
7800F0
F00078
F00078
F00078
F00078
F00078
F00078
F00078
F00078
F00078
F00078
F00078
F00078
F00078
7000F0
7800F0
7800F0
7800F0
3C01E0
3E03E0
1F07C0
0FFF80
07FF00
01FC00
ENDCHAR
STARTCHAR 00D4
ENCODING 212
SWIDTH 585 0
DWIDTH 26 0
BBX 21 41 3 0
BITMAP
00F800
01FC00
01DC00
038E00
070700
0E0380
000000
000000
01FC00
07FF00
0FFF80
1F07C0
3E03E0
3C01E0
7800F0
7800F0
7800F0
7800F0
F00078
F00078
F00078
F00078
F00078
F00078
F00078
F00078
F00078
F00078
F00078
F00078
F00078
7000F0
7800F0
7800F0
7800F0
3C01E0
3E03E0
1F07C0
0FFF80
07FF00
01FC00
ENDCHAR
STARTCHAR 00D5
ENCODING 213
SWIDTH 585 0
DWIDTH 26 0
BBX 21 41 3 0
BITMAP
078380
0FE380
1FFF80
1C7F00
1C1E00
000000
000000
000000
01FC00
07FF00
0FFF80
1F07C0
3E03E0
3C01E0
7800F0
7800F0
7800F0
7800F0
F00078
F00078
F00078
F00078
F00078
F00078
F00078
F00078
F00078
F00078
F00078
F00078
F00078
7000F0
7800F0
7800F0
7800F0
3C01E0
3E03E0
1F07C0
0FFF80
07FF00
01FC00
ENDCHAR
STARTCHAR 00D6
ENCODING 214
SWIDTH 585 0
DWIDTH 26 0
BBX 21 40 3 0
BITMAP
0F0F00
0F0F00
0F0F00
0F0F00
000000
000000
000000
01FC00
07FF00
0FFF80
1F07C0
3E03E0
3C01E0
7800F0
7800F0
7800F0
7800F0
F00078
F00078
F00078
F00078
F00078
F00078
F00078
F00078
F00078
F00078
F00078
F00078
F00078
7000F0
7800F0
7800F0
7800F0
3C01E0
3E03E0
1F07C0
0FFF80
07FF00
01FC00
ENDCHAR
STARTCHAR 00D7
ENCODING 215
SWIDTH 585 0
DWIDTH 26 0
BBX 20 20 3 4
BITMAP
200040
7000E0
F801F0
7C03E0
3E07C0
1F0F80
0F9F00
07FE00
03FC00
01F800
01F800
03FC00
07FE00
0F9F00
1F0F80
3E07C0
7C03E0
F801F0
7000E0
200040
ENDCHAR
STARTCHAR 00D8
ENCODING 216
SWIDTH 585 0
DWIDTH 26 0
BBX 25 35 1 -1
BITMAP
00000200
007F0380
01FFC700
03FFFE00
07C1FE00
0F80FC00
0F007800
1E003C00
1E007C00
1E00FC00
1E00FC00
3C01DE00
3C03DE00
3C079E00
3C071E00
3C0E1E00
3C1E1E00
3C1C1E00
3C381E00
3C781E00
3CF01E00
3CE01E00
3DC01E00
3FC01E00
3F803C00
1F003C00
1F003C00
1E003C00
1F007800
3F00F800
3FC1F000
77FFE000
F3FFC000
E07F0000
40000000
ENDCHAR
STARTCHAR 00D9
ENCODING 217
SWIDTH 585 0
DWIDTH 26 0
BBX 20 41 3 0
BITMAP
078000
03C000
01E000
00E000
007000
007800
000000
000000
000000
F000F0
F000F0
F000F0
F000F0
F000F0
F000F0
F000F0
F000F0
F000F0
F000F0
F000F0
F000F0
F000F0
F000F0
F000F0
F000F0
F000F0
F000F0
F000F0
F000F0
F000F0
F000F0
F000F0
F000F0
F000F0
F000F0
7801E0
7801E0
3E07C0
1FFF80
0FFF00
03FC00
ENDCHAR
STARTCHAR 00DA
ENCODING 218
SWIDTH 585 0
DWIDTH 26 0
BBX 20 41 3 0
BITMAP
001E00
003C00
007800
007000
00E000
01E000
000000
000000
000000
F000F0
F000F0
F000F0
F000F0
F000F0
F000F0
F000F0
F000F0
F000F0
F000F0
F000F0
F000F0
F000F0
F000F0
F000F0
F000F0
F000F0
F000F0
F000F0
F000F0
F000F0
F000F0
F000F0
F000F0
F000F0
F000F0
7801E0
7801E0
3E07C0
1FFF80
0FFF00
03FC00
ENDCHAR
STARTCHAR 00DB
ENCODING 219
SWIDTH 585 0
DWIDTH 26 0
BBX 20 41 3 0
BITMAP
00F800
01FC00
01DC00
038E00
070700
0E0380
000000
000000
000000
F000F0
F000F0
F000F0
F000F0
F000F0
F000F0
F000F0
F000F0
F000F0
F000F0
F000F0
F000F0
F000F0
F000F0
F000F0
F000F0
F000F0
F000F0
F000F0
F000F0
F000F0
F000F0
F000F0
F000F0
F000F0
F000F0
7801E0
7801E0
3E07C0
1FFF80
0FFF00
03FC00
ENDCHAR
STARTCHAR 00DC
ENCODING 220
SWIDTH 585 0
DWIDTH 26 0
BBX 20 40 3 0
BITMAP
0F0F00
0F0F00
0F0F00
0F0F00
000000
000000
000000
000000
F000F0
F000F0
F000F0
F000F0
F000F0
F000F0
F000F0
F000F0
F000F0
F000F0
F000F0
F000F0
F000F0
F000F0
F000F0
F000F0
F000F0
F000F0
F000F0
F000F0
F000F0
F000F0
F000F0
F000F0
F000F0
F000F0
7801E0
7801E0
3E07C0
1FFF80
0FFF00
03FC00
ENDCHAR
STARTCHAR 00DD
ENCODING 221
SWIDTH 585 0
DWIDTH 26 0
BBX 24 41 1 0
BITMAP
000780
000F00
001E00
001C00
003800
007800
000000
000000
000000
F8001F
78001E
7C003E
3E007C
1E0078
1F00F8
0F00F0
0F81F0
0781E0
07C3E0
03E7C0
01E780
01FF80
00FF00
00FF00
007E00
007E00
003C00
003C00
003C00
003C00
003C00
003C00
003C00
003C00
003C00
003C00
003C00
003C00
003C00
003C00
003C00
ENDCHAR
STARTCHAR 00DE
ENCODING 222
SWIDTH 585 0
DWIDTH 26 0
BBX 21 32 4 0
BITMAP
F00000
F00000
F00000
F00000
F00000
F00000
FFFE00
FFFF80
FFFFE0
F007E0
F001F0
F000F0
F00078
F00078
F00078
F00078
F00078
F00078
F000F8
F001F0
F007F0
FFFFE0
FFFF80
FFFE00
F00000
F00000
F00000
F00000
F00000
F00000
F00000
F00000
ENDCHAR
STARTCHAR 00DF
ENCODING 223
SWIDTH 585 0
DWIDTH 26 0
BBX 21 33 4 0
BITMAP
07F800
1FFE00
3FFF00
7C0F80
780780
F803C0
F003C0
F003C0
F00FC0
F03F00
F07C00
F07800
F0F000
F0F000
F0F000
F0F000
F0F800
F07C00
F07E00
F03F80
F00FC0
F007E0
F001F0
F000F0
F00078
F00078
F00078
F00078
F000F8
F301F0
F3FFE0
F3FFC0
F3FF00
ENDCHAR
STARTCHAR 00E0
ENCODING 224
SWIDTH 585 0
DWIDTH 26 0
BBX 21 35 3 0
BITMAP
1F0000
0F0000
078000
03C000
01C000
00E000
007000
007800
000000
000000
07FE00
3FFF80
3FFFC0
3C03E0
2001F0
0000F0
000078
000078
000078
000078
03FFF8
0FFFF8
3FFFF8
7F0078
780078
F80078
F00078
F000F8
F000F8
F001F8
F803F8
7E0FF8
3FFF78
1FFE78
07F078
ENDCHAR
STARTCHAR 00E1
ENCODING 225
SWIDTH 585 0
DWIDTH 26 0
BBX 21 35 3 0
BITMAP
000F80
000F00
001E00
003C00
003800
007000
00F000
01E000
000000
000000
07FE00
3FFF80
3FFFC0
3C03E0
2001F0
0000F0
000078
000078
000078
000078
03FFF8
0FFFF8
3FFFF8
7F0078
780078
F80078
F00078
F000F8
F000F8
F001F8
F803F8
7E0FF8
3FFF78
1FFE78
07F078
ENDCHAR
STARTCHAR 00E2
ENCODING 226
SWIDTH 585 0
DWIDTH 26 0
BBX 21 35 3 0
BITMAP
00F000
01F800
01F800
039C00
079E00
070E00
0E0700
1C0380
000000
000000
07FE00
3FFF80
3FFFC0
3C03E0
2001F0
0000F0
000078
000078
000078
000078
03FFF8
0FFFF8
3FFFF8
7F0078
780078
F80078
F00078
F000F8
F000F8
F001F8
F803F8
7E0FF8
3FFF78
1FFE78
07F078
ENDCHAR
STARTCHAR 00E3
ENCODING 227
SWIDTH 585 0
DWIDTH 26 0
BBX 21 34 3 0
BITMAP
078380
0FC380
0FE780
1E7F00
1C3F00
1C1E00
000000
000000
000000
07FE00
3FFF80
3FFFC0
3C03E0
2001F0
0000F0
000078
000078
000078
000078
03FFF8
0FFFF8
3FFFF8
7F0078
780078
F80078
F00078
F000F8
F000F8
F001F8
F803F8
7E0FF8
3FFF78
1FFE78
07F078
ENDCHAR
STARTCHAR 00E4
ENCODING 228
SWIDTH 585 0
DWIDTH 26 0
BBX 21 33 3 0
BITMAP
0F0F00
0F0F00
0F0F00
0F0F00
000000
000000
000000
000000
07FE00
3FFF80
3FFFC0
3C03E0
2001F0
0000F0
000078
000078
000078
000078
03FFF8
0FFFF8
3FFFF8
7F0078
780078
F80078
F00078
F000F8
F000F8
F001F8
F803F8
7E0FF8
3FFF78
1FFE78
07F078
ENDCHAR
STARTCHAR 00E5
ENCODING 229
SWIDTH 585 0
DWIDTH 26 0
BBX 21 39 3 0
BITMAP
00F000
03FC00
07FE00
0F0E00
0E0700
0E0700
0E0700
0E0700
0F0E00
07FE00
03FC00
00F000
000000
000000
07FE00
3FFF80
3FFFC0
3C03E0
2001F0
0000F0
000078
000078
000078
000078
03FFF8
0FFFF8
3FFFF8
7F0078
780078
F80078
F00078
F000F8
F000F8
F001F8
F803F8
7E0FF8
3FFF78
1FFE78
07F078
ENDCHAR
STARTCHAR 00E6
ENCODING 230
SWIDTH 585 0
DWIDTH 26 0
BBX 25 25 1 0
BITMAP
1FC1F800
7FF3FE00
7FFFFE00
707F9F00
403F0F00
003E0700
001E0780
001E0780
001E0780
001E0780
001E0780
07FFFF80
1FFFFF80
3FFFFF80
7C1E0000
F81E0000
F01E0000
F01E0000
F01E0000
F01E0000
F83F0080
7C7F8180
7FFFFF80
3FF3FF80
0FC0FE00
ENDCHAR
STARTCHAR 00E7
ENCODING 231
SWIDTH 585 0
DWIDTH 26 0
BBX 19 33 4 -8
BITMAP
00FF00
03FFC0
0FFFE0
1F81E0
3E0060
3C0020
780000
780000
F80000
F00000
F00000
F00000
F00000
F00000
F00000
F00000
F80000
780000
780000
3C0020
3E0060
1F81E0
0FFFE0
03FFC0
00FF00
003800
001C00
000E00
000E00
021E00
03FE00
03FC00
03F800
ENDCHAR
STARTCHAR 00E8
ENCODING 232
SWIDTH 585 0
DWIDTH 26 0
BBX 21 35 3 0
BITMAP
1F0000
0F0000
078000
03C000
01C000
00E000
007000
007800
000000
000000
00FC00
07FF00
0FFFC0
1F07E0
3E01E0
3C00F0
7800F0
780070
F00078
F00078
F00078
FFFFF8
FFFFF8
FFFFF8
F00000
F00000
F00000
700000
780000
380000
3C0010
1F00F0
0FFFF0
07FFF0
00FF80
ENDCHAR
STARTCHAR 00E9
ENCODING 233
SWIDTH 585 0
DWIDTH 26 0
BBX 21 35 3 0
BITMAP
000F80
000F00
001E00
003C00
003800
007000
00F000
01E000
000000
000000
00FC00
07FF00
0FFFC0
1F07E0
3E01E0
3C00F0
7800F0
780070
F00078
F00078
F00078
FFFFF8
FFFFF8
FFFFF8
F00000
F00000
F00000
700000
780000
380000
3C0010
1F00F0
0FFFF0
07FFF0
00FF80
ENDCHAR
STARTCHAR 00EA
ENCODING 234
SWIDTH 585 0
DWIDTH 26 0
BBX 21 35 3 0
BITMAP
00F000
01F800
01F800
039C00
079E00
070E00
0E0700
1C0380
000000
000000
00FC00
07FF00
0FFFC0
1F07E0
3E01E0
3C00F0
7800F0
780070
F00078
F00078
F00078
FFFFF8
FFFFF8
FFFFF8
F00000
F00000
F00000
700000
780000
380000
3C0010
1F00F0
0FFFF0
07FFF0
00FF80
ENDCHAR
STARTCHAR 00EB
ENCODING 235
SWIDTH 585 0
DWIDTH 26 0
BBX 21 33 3 0
BITMAP
0F0F00
0F0F00
0F0F00
0F0F00
000000
000000
000000
000000
00FC00
07FF00
0FFFC0
1F07E0
3E01E0
3C00F0
7800F0
780070
F00078
F00078
F00078
FFFFF8
FFFFF8
FFFFF8
F00000
F00000
F00000
700000
780000
380000
3C0010
1F00F0
0FFFF0
07FFF0
00FF80
ENDCHAR
STARTCHAR 00EC
ENCODING 236
SWIDTH 585 0
DWIDTH 26 0
BBX 20 35 4 0
BITMAP
3E0000
1E0000
0F0000
078000
038000
01C000
00E000
00F000
000000
000000
000000
3FF000
3FF000
3FF000
00F000
00F000
00F000
00F000
00F000
00F000
00F000
00F000
00F000
00F000
00F000
00F000
00F000
00F000
00F000
00F000
00F000
00F000
FFFFF0
FFFFF0
FFFFF0
ENDCHAR
STARTCHAR 00ED
ENCODING 237
SWIDTH 585 0
DWIDTH 26 0
BBX 20 35 4 0
BITMAP
001F00
001E00
003C00
007800
007000
00E000
01E000
03C000
000000
000000
000000
3FF000
3FF000
3FF000
00F000
00F000
00F000
00F000
00F000
00F000
00F000
00F000
00F000
00F000
00F000
00F000
00F000
00F000
00F000
00F000
00F000
00F000
FFFFF0
FFFFF0
FFFFF0
ENDCHAR
STARTCHAR 00EE
ENCODING 238
SWIDTH 585 0
DWIDTH 26 0
BBX 20 35 4 0
BITMAP
01E000
03F000
03F000
073800
0F3C00
0E1C00
1C0E00
380700
000000
000000
000000
3FF000
3FF000
3FF000
00F000
00F000
00F000
00F000
00F000
00F000
00F000
00F000
00F000
00F000
00F000
00F000
00F000
00F000
00F000
00F000
00F000
00F000
FFFFF0
FFFFF0
FFFFF0
ENDCHAR
STARTCHAR 00EF
ENCODING 239
SWIDTH 585 0
DWIDTH 26 0
BBX 20 33 4 0
BITMAP
1E1E00
1E1E00
1E1E00
1E1E00
000000
000000
000000
000000
000000
3FF000
3FF000
3FF000
00F000
00F000
00F000
00F000
00F000
00F000
00F000
00F000
00F000
00F000
00F000
00F000
00F000
00F000
00F000
00F000
00F000
00F000
FFFFF0
FFFFF0
FFFFF0
ENDCHAR
STARTCHAR 00F0
ENCODING 240
SWIDTH 585 0
DWIDTH 26 0
BBX 21 33 3 0
BITMAP
1F8000
0FC0C0
07EFC0
03FF00
07F800
3FFC00
1C7E00
003E00
001F00
01FF80
07FFC0
1FFFC0
3F03E0
3E01E0
7C00F0
7800F0
7800F0
F00078
F00078
F00078
F00078
F00078
F00078
F00078
F00078
7800F8
7800F0
7C01F0
3C01E0
3F07E0
1FFFC0
07FF00
01FC00
ENDCHAR
STARTCHAR 00F1
ENCODING 241
SWIDTH 585 0
DWIDTH 26 0
BBX 18 34 4 0
BITMAP
0F0700
1F8700
1FCF00
3CFE00
387E00
383C00
000000
000000
000000
00FC00
F3FE00
F7FF00
FE0F80
FC0780
F807C0
F803C0
F003C0
F003C0
F003C0
F003C0
F003C0
F003C0
F003C0
F003C0
F003C0
F003C0
F003C0
F003C0
F003C0
F003C0
F003C0
F003C0
F003C0
F003C0
ENDCHAR
STARTCHAR 00F2
ENCODING 242
SWIDTH 585 0
DWIDTH 26 0
BBX 21 35 3 0
BITMAP
1F0000
0F0000
078000
03C000
01C000
00E000
007000
007800
000000
000000
01FC00
07FF00
1FFFC0
3F07E0
3C01E0
7C01F0
7800F0
7800F0
F00078
F00078
F00078
F00078
F00078
F00078
F00078
F00078
F00078
7800F0
7800F0
7C01F0
3C01E0
3F07E0
1FFFC0
07FF00
01FC00
ENDCHAR
STARTCHAR 00F3
ENCODING 243
SWIDTH 585 0
DWIDTH 26 0
BBX 21 35 3 0
BITMAP
000F80
000F00
001E00
003C00
003800
007000
00F000
01E000
000000
000000
01FC00
07FF00
1FFFC0
3F07E0
3C01E0
7C01F0
7800F0
7800F0
F00078
F00078
F00078
F00078
F00078
F00078
F00078
F00078
F00078
7800F0
7800F0
7C01F0
3C01E0
3F07E0
1FFFC0
07FF00
01FC00
ENDCHAR
STARTCHAR 00F4
ENCODING 244
SWIDTH 585 0
DWIDTH 26 0
BBX 21 35 3 0
BITMAP
00F000
01F800
01F800
039C00
079E00
070E00
0E0700
1C0380
000000
000000
01FC00
07FF00
1FFFC0
3F07E0
3C01E0
7C01F0
7800F0
7800F0
F00078
F00078
F00078
F00078
F00078
F00078
F00078
F00078
F00078
7800F0
7800F0
7C01F0
3C01E0
3F07E0
1FFFC0
07FF00
01FC00
ENDCHAR
STARTCHAR 00F5
ENCODING 245
SWIDTH 585 0
DWIDTH 26 0
BBX 21 34 3 0
BITMAP
078380
0FC380
0FE780
1E7F00
1C3F00
1C1E00
000000
000000
000000
01FC00
07FF00
1FFFC0
3F07E0
3C01E0
7C01F0
7800F0
7800F0
F00078
F00078
F00078
F00078
F00078
F00078
F00078
F00078
F00078
7800F0
7800F0
7C01F0
3C01E0
3F07E0
1FFFC0
07FF00
01FC00
ENDCHAR
STARTCHAR 00F6
ENCODING 246
SWIDTH 585 0
DWIDTH 26 0
BBX 21 33 3 0
BITMAP
0F0F00
0F0F00
0F0F00
0F0F00
000000
000000
000000
000000
01FC00
07FF00
1FFFC0
3F07E0
3C01E0
7C01F0
7800F0
7800F0
F00078
F00078
F00078
F00078
F00078
F00078
F00078
F00078
F00078
7800F0
7800F0
7C01F0
3C01E0
3F07E0
1FFFC0
07FF00
01FC00
ENDCHAR
STARTCHAR 00F7
ENCODING 247
SWIDTH 585 0
DWIDTH 26 0
BBX 23 20 2 4
BITMAP
007C00
007C00
007C00
007C00
007C00
000000
000000
000000
FFFFFE
FFFFFE
FFFFFE
FFFFFE
000000
000000
000000
007C00
007C00
007C00
007C00
007C00
ENDCHAR
STARTCHAR 00F8
ENCODING 248
SWIDTH 585 0
DWIDTH 26 0
BBX 24 27 1 -1
BITMAP
000003
007F07
01FFEF
07FFFE
07C1FC
0F0078
1F007C
1E00FC
1E01FE
3C03DE
3C079E
3C0F1E
3C0E1E
3C1C1E
3C381E
3C781E
3CF01E
3DE01E
3FC03C
1F803C
1F007C
1F0078
1FC1F8
3FFFF0
7BFFC0
F07F00
600000
ENDCHAR
STARTCHAR 00F9
ENCODING 249
SWIDTH 585 0
DWIDTH 26 0
BBX 18 35 4 0
BITMAP
3E0000
1E0000
0F0000
078000
038000
01C000
00E000
00F000
000000
000000
000000
F003C0
F003C0
F003C0
F003C0
F003C0
F003C0
F003C0
F003C0
F003C0
F003C0
F003C0
F003C0
F003C0
F003C0
F003C0
F003C0
F003C0
F007C0
F807C0
780FC0
7C1FC0
3FFBC0
3FF3C0
0FC3C0
ENDCHAR
STARTCHAR 00FA
ENCODING 250
SWIDTH 585 0
DWIDTH 26 0
BBX 18 35 4 0
BITMAP
001F00
001E00
003C00
007800
007000
00E000
01E000
03C000
000000
000000
000000
F003C0
F003C0
F003C0
F003C0
F003C0
F003C0
F003C0
F003C0
F003C0
F003C0
F003C0
F003C0
F003C0
F003C0
F003C0
F003C0
F003C0
F007C0
F807C0
780FC0
7C1FC0
3FFBC0
3FF3C0
0FC3C0
ENDCHAR
STARTCHAR 00FB
ENCODING 251
SWIDTH 585 0
DWIDTH 26 0
BBX 18 35 4 0
BITMAP
01E000
03F000
03F000
073800
0F3C00
0E1C00
1C0E00
380700
000000
000000
000000
F003C0
F003C0
F003C0
F003C0
F003C0
F003C0
F003C0
F003C0
F003C0
F003C0
F003C0
F003C0
F003C0
F003C0
F003C0
F003C0
F003C0
F007C0
F807C0
780FC0
7C1FC0
3FFBC0
3FF3C0
0FC3C0
ENDCHAR
STARTCHAR 00FC
ENCODING 252
SWIDTH 585 0
DWIDTH 26 0
BBX 18 33 4 0
BITMAP
1E1E00
1E1E00
1E1E00
1E1E00
000000
000000
000000
000000
000000
F003C0
F003C0
F003C0
F003C0
F003C0
F003C0
F003C0
F003C0
F003C0
F003C0
F003C0
F003C0
F003C0
F003C0
F003C0
F003C0
F003C0
F007C0
F807C0
780FC0
7C1FC0
3FFBC0
3FF3C0
0FC3C0
ENDCHAR
STARTCHAR 00FD
ENCODING 253
SWIDTH 585 0
DWIDTH 26 0
BBX 23 44 2 -9
BITMAP
0007C0
000780
000F00
001E00
001C00
003800
007800
00F000
000000
000000
000000
F8003E
78003C
78003C
7C007C
3C0078
3E0078
1E00F0
1E00F0
1F01F0
0F01E0
0F81E0
0783E0
0783C0
07C7C0
03C780
03E780
01EF80
01EF00
00FF00
00FE00
00FE00
007E00
007C00
003C00
007800
007800
00F800
00F000
01F000
03E000
3FE000
3FC000
3F0000
ENDCHAR
STARTCHAR 00FE
ENCODING 254
SWIDTH 585 0
DWIDTH 26 0
BBX 21 42 4 -9
BITMAP
F00000
F00000
F00000
F00000
F00000
F00000
F00000
F00000
F0FC00
F3FF00
F7FFC0
FF07C0
FC01E0
FC01F0
F800F0
F800F0
F00078
F00078
F00078
F00078
F00078
F00078
F00078
F00078
F00078
F800F0
F800F0
FC01F0
FC01E0
FF07C0
F7FFC0
F3FF00
F0FC00
F00000
F00000
F00000
F00000
F00000
F00000
F00000
F00000
F00000
ENDCHAR
STARTCHAR 00FF
ENCODING 255
SWIDTH 585 0
DWIDTH 26 0
BBX 23 42 2 -9
BITMAP
078780
078780
078780
078780
000000
000000
000000
000000
000000
F8003E
78003C
78003C
7C007C
3C0078
3E0078
1E00F0
1E00F0
1F01F0
0F01E0
0F81E0
0783E0
0783C0
07C7C0
03C780
03E780
01EF80
01EF00
00FF00
00FE00
00FE00
007E00
007C00
003C00
007800
007800
00F800
00F000
01F000
03E000
3FE000
3FC000
3F0000
ENDCHAR
STARTCHAR 0106
ENCODING 262
SWIDTH 585 0
DWIDTH 26 0
BBX 20 41 3 0
BITMAP
000780
000F00
001E00
001C00
003800
007800
000000
000000
007F80
01FFE0
07FFF0
0FC0F0
1F0030
1E0010
3C0000
3C0000
780000
780000
780000
F00000
F00000
F00000
F00000
F00000
F00000
F00000
F00000
F00000
F00000
F00000
780000
780000
780000
3C0000
3C0000
1E0010
1F0030
0FC0F0
07FFF0
01FFE0
007F80
ENDCHAR
STARTCHAR 0107
ENCODING 263
SWIDTH 585 0
DWIDTH 26 0
BBX 19 35 4 0
BITMAP
0007C0
000780
000F00
001E00
001C00
003800
007800
00F000
000000
000000
00FF00
03FFC0
0FFFE0
1F81E0
3E0060
3C0020
780000
780000
F80000
F00000
F00000
F00000
F00000
F00000
F00000
F00000
F80000
780000
780000
3C0020
3E0060
1F81E0
0FFFE0
03FFC0
00FF00
ENDCHAR
STARTCHAR 010C
ENCODING 268
SWIDTH 585 0
DWIDTH 26 0
BBX 20 41 3 0
BITMAP
0380E0
01C1C0
00E380
007700
007F00
003E00
000000
000000
007F80
01FFE0
07FFF0
0FC0F0
1F0030
1E0010
3C0000
3C0000
780000
780000
780000
F00000
F00000
F00000
F00000
F00000
F00000
F00000
F00000
F00000
F00000
F00000
780000
780000
780000
3C0000
3C0000
1E0010
1F0030
0FC0F0
07FFF0
01FFE0
007F80
ENDCHAR
STARTCHAR 010D
ENCODING 269
SWIDTH 585 0
DWIDTH 26 0
BBX 19 35 4 0
BITMAP
0E01C0
070380
038700
03CF00
01CE00
00FC00
00FC00
007800
000000
000000
00FF00
03FFC0
0FFFE0
1F81E0
3E0060
3C0020
780000
780000
F80000
F00000
F00000
F00000
F00000
F00000
F00000
F00000
F80000
780000
780000
3C0020
3E0060
1F81E0
0FFFE0
03FFC0
00FF00
ENDCHAR
STARTCHAR 0111
ENCODING 273
SWIDTH 585 0
DWIDTH 26 0
BBX 25 33 3 0
BITMAP
00007800
00007800
003FFF80
003FFF80
003FFF80
00007800
00007800
00007800
01F87800
07FE7800
1FFF7800
1F07F800
3C01F800
7C01F800
7800F800
7800F800
F0007800
F0007800
F0007800
F0007800
F0007800
F0007800
F0007800
F0007800
F0007800
7800F800
7800F800
7C01F800
3C01F800
1F07F800
1FFF7800
07FE7800
01F87800
ENDCHAR
STARTCHAR 011E
ENCODING 286
SWIDTH 585 0
DWIDTH 26 0
BBX 21 41 3 0
BITMAP
0E0380
0F0780
07FF00
03FE00
01FC00
000000
000000
000000
007F80
01FFE0
07FFF0
0FC0F0
1F0030
1E0010
3C0000
3C0000
780000
780000
780000
F00000
F00000
F00000
F00000
F00000
F00FF8
F00FF8
F00FF8
F00078
F00078
F00078
780078
780078
780078
780078
3C0078
1E0078
1F0078
0F81F8
07FFF8
03FFE0
007F00
ENDCHAR
STARTCHAR 011F
ENCODING 287
SWIDTH 585 0
DWIDTH 26 0
BBX 21 44 3 -9
BITMAP
0E0380
0E0780
070700
07FF00
03FE00
00F800
000000
000000
000000
000000
01F800
07FE78
0FFF78
1F07F8
3E01F8
7C01F8
7800F8
7800F8
F00078
F00078
F00078
F00078
F00078
F00078
F00078
F00078
F00078
7800F8
7800F8
7C01F8
3C01F8
1F07F8
1FFF78
07FE78
01F878
000078
000078
0000F0
0000F0
1001F0
1E03E0
1FFFC0
1FFF80
07FC00
ENDCHAR
STARTCHAR 0130
ENCODING 304
SWIDTH 585 0
DWIDTH 26 0
BBX 18 40 4 0
BITMAP
01E000
01E000
01E000
01E000
000000
000000
000000
000000
FFFFC0
FFFFC0
FFFFC0
01E000
01E000
01E000
01E000
01E000
01E000
01E000
01E000
01E000
01E000
01E000
01E000
01E000
01E000
01E000
01E000
01E000
01E000
01E000
01E000
01E000
01E000
01E000
01E000
01E000
01E000
FFFFC0
FFFFC0
FFFFC0
ENDCHAR
STARTCHAR 0131
ENCODING 305
SWIDTH 585 0
DWIDTH 26 0
BBX 20 24 4 0
BITMAP
3FF000
3FF000
3FF000
00F000
00F000
00F000
00F000
00F000
00F000
00F000
00F000
00F000
00F000
00F000
00F000
00F000
00F000
00F000
00F000
00F000
00F000
FFFFF0
FFFFF0
FFFFF0
ENDCHAR
STARTCHAR 0141
ENCODING 321
SWIDTH 585 0
DWIDTH 26 0
BBX 25 32 0 0
BITMAP
07800000
07800000
07800000
07800000
07800000
07800000
07800000
07800000
07800000
07818000
07878000
078F8000
07BF0000
07FC0000
07F80000
07E00000
07C00000
0F800000
3F800000
7F800000
FF800000
67800000
07800000
07800000
07800000
07800000
07800000
07800000
07800000
07FFFF80
07FFFF80
07FFFF80
ENDCHAR
STARTCHAR 0142
ENCODING 322
SWIDTH 585 0
DWIDTH 26 0
BBX 20 33 2 0
BITMAP
3FF000
3FF000
3FF000
00F000
00F000
00F000
00F000
00F000
00F060
00F0F0
00F3E0
00F7C0
00FF80
00FE00
00FC00
01F000
03F000
0FF000
1FF000
7EF000
F8F000
70F000
00F000
00F000
00F000
00F000
00F000
00F000
007800
007C00
003FF0
001FF0
000FF0
ENDCHAR
STARTCHAR 0152
ENCODING 338
SWIDTH 585 0
DWIDTH 26 0
BBX 25 32 2 0
BITMAP
00FFFF80
07FFFF80
0FFFFF80
1F078000
3E078000
3C078000
78078000
78078000
78078000
F0078000
F0078000
F0078000
F0078000
F007FF00
F007FF00
F007FF00
F0078000
F0078000
F0078000
F0078000
F0078000
F0078000
F0078000
78078000
78078000
78078000
3C078000
3E078000
1F078000
0FFFFF80
07FFFF80
00FFFF80
ENDCHAR
STARTCHAR 0153
ENCODING 339
SWIDTH 585 0
DWIDTH 26 0
BBX 26 25 0 0
BITMAP
07E07C00
1FF9FF00
3FFFFF00
3C3FCF80
781F8780
781F0380
700F03C0
F00F03C0
F00F03C0
F00F03C0
F00F03C0
F00FFFC0
F00FFFC0
F00FFFC0
F00F0000
F00F0000
F00F0000
F00F0000
700F0000
781F0000
781F8040
3C3FC0C0
3FFFFFC0
1FF9FFC0
07E07F00
ENDCHAR
STARTCHAR 015E
ENCODING 350
SWIDTH 585 0
DWIDTH 26 0
BBX 21 41 3 -8
BITMAP
01FE00
0FFFC0
1FFFE0
3F03E0
7C0060
780020
F00000
F00000
F00000
F00000
F00000
F80000
F80000
7E0000
3FE000
3FFC00
0FFF80
03FFC0
003FE0
0003F0
0001F0
0000F8
000078
000078
000078
000078
000078
8000F0
E001F0
FC07E0
FFFFC0
7FFF80
07FC00
007000
003800
001C00
001C00
043C00
07FC00
07F800
07F000
ENDCHAR
STARTCHAR 015F
ENCODING 351
SWIDTH 585 0
DWIDTH 26 0
BBX 17 33 5 -8
BITMAP
07FC00
1FFF00
3FFF00
7C0700
F80100
F00000
F00000
F00000
F80000
FC0000
7FC000
7FF800
1FFE00
07FF00
007F00
001F80
000780
000780
000780
000780
800F00
F01F00
FFFE00
FFFC00
1FF000
01C000
00E000
007000
007000
10F000
1FF000
1FE000
1FC000
ENDCHAR
STARTCHAR 0160
ENCODING 352
SWIDTH 585 0
DWIDTH 26 0
BBX 21 41 3 0
BITMAP
0E0380
070700
038E00
01DC00
01FC00
00F800
000000
000000
01FE00
0FFFC0
1FFFE0
3F03E0
7C0060
780020
F00000
F00000
F00000
F00000
F00000
F80000
F80000
7E0000
3FE000
3FFC00
0FFF80
03FFC0
003FE0
0003F0
0001F0
0000F8
000078
000078
000078
000078
000078
8000F0
E001F0
FC07E0
FFFFC0
7FFF80
07FC00
ENDCHAR
STARTCHAR 0161
ENCODING 353
SWIDTH 585 0
DWIDTH 26 0
BBX 17 35 5 0
BITMAP
700E00
381C00
1C3800
1E7800
0E7000
07E000
07E000
03C000
000000
000000
07FC00
1FFF00
3FFF00
7C0700
F80100
F00000
F00000
F00000
F80000
FC0000
7FC000
7FF800
1FFE00
07FF00
007F00
001F80
000780
000780
000780
000780
800F00
F01F00
FFFE00
FFFC00
1FF000
ENDCHAR
STARTCHAR 0178
ENCODING 376
SWIDTH 585 0
DWIDTH 26 0
BBX 24 40 1 0
BITMAP
03C3C0
03C3C0
03C3C0
03C3C0
000000
000000
000000
000000
F8001F
78001E
7C003E
3E007C
1E0078
1F00F8
0F00F0
0F81F0
0781E0
07C3E0
03E7C0
01E780
01FF80
00FF00
00FF00
007E00
007E00
003C00
003C00
003C00
003C00
003C00
003C00
003C00
003C00
003C00
003C00
003C00
003C00
003C00
003C00
003C00
ENDCHAR
STARTCHAR 017D
ENCODING 381
SWIDTH 585 0
DWIDTH 26 0
BBX 22 41 3 0
BITMAP
0E0380
070700
038E00
01DC00
01FC00
00F800
000000
000000
000000
FFFFFC
FFFFFC
FFFFFC
00007C
0000F8
0000F8
0001F0
0003E0
0003E0
0007C0
000F80
000F00
001F00
003E00
003C00
007C00
00F800
00F000
01F000
03E000
03C000
07C000
0F8000
1F0000
1F0000
3E0000
7C0000
7C0000
F80000
FFFFFC
FFFFFC
FFFFFC
ENDCHAR
STARTCHAR 017E
ENCODING 382
SWIDTH 585 0
DWIDTH 26 0
BBX 18 35 4 0
BITMAP
380700
1C0E00
0E1C00
0F3C00
073800
03F000
03F000
01E000
000000
000000
000000
7FFFC0
7FFFC0
7FFFC0
0007C0
000F80
001F80
001F00
003E00
007C00
00F800
00F800
01F000
03E000
07C000
0FC000
0F8000
1F0000
3E0000
7E0000
7C0000
F80000
FFFFC0
FFFFC0
FFFFC0
ENDCHAR
STARTCHAR 0192
ENCODING 402
SWIDTH 585 0
DWIDTH 26 0
BBX 26 42 0 -9
BITMAP
00001F80
00007FC0
0000FFC0
0001F040
0001E000
0003C000
0003C000
0003C000
0003C000
00078000
00078000
00078000
00078000
00078000
00078000
01FFFE00
01FFFE00
01FFFE00
000F0000
000F0000
000F0000
001F0000
001E0000
001E0000
001E0000
001E0000
001E0000
003E0000
003C0000
003C0000
003C0000
003C0000
003C0000
00780000
00780000
00780000
00F80000
00F00000
83F00000
FFE00000
FFC00000
7F000000
ENDCHAR
STARTCHAR 02C6
ENCODING 710
SWIDTH 585 0
DWIDTH 26 0
BBX 14 8 6 27
BITMAP
0780
0FC0
0FC0
1CE0
3CF0
3870
7038
E01C
ENDCHAR
STARTCHAR 02C7
ENCODING 711
SWIDTH 585 0
DWIDTH 26 0
BBX 14 8 6 27
BITMAP
E01C
7038
3870
3CF0
1CE0
0FC0
0FC0
0780
ENDCHAR
STARTCHAR 02D8
ENCODING 728
SWIDTH 585 0
DWIDTH 26 0
BBX 13 6 7 29
BITMAP
E038
E078
7070
7FF0
3FE0
0F80
ENDCHAR
STARTCHAR 02D9
ENCODING 729
SWIDTH 585 0
DWIDTH 26 0
BBX 4 4 11 29
BITMAP
F0
F0
F0
F0
ENDCHAR
STARTCHAR 02DA
ENCODING 730
SWIDTH 585 0
DWIDTH 26 0
BBX 12 12 7 27
BITMAP
0F00
3FC0
7FE0
F0E0
E070
E070
E070
E070
F0E0
7FE0
3FC0
0F00
ENDCHAR
STARTCHAR 02DB
ENCODING 731
SWIDTH 585 0
DWIDTH 26 0
BBX 8 8 9 -8
BITMAP
38
70
E0
E0
E1
FF
7F
3F
ENDCHAR
STARTCHAR 02DC
ENCODING 732
SWIDTH 585 0
DWIDTH 26 0
BBX 14 6 6 28
BITMAP
3C1C
7E1C
7F3C
F3F8
E1F8
E0F0
ENDCHAR
STARTCHAR 02DD
ENCODING 733
SWIDTH 585 0
DWIDTH 26 0
BBX 15 8 7 27
BITMAP
0F1E
1E1C
1C38
3C78
3870
78E0
70E0
E1C0
ENDCHAR
STARTCHAR 03A9
ENCODING 937
SWIDTH 585 0
DWIDTH 26 0
BBX 23 32 2 0
BITMAP
00FE00
03FF80
07FFC0
0FFFE0
1F83F0
3E00F8
3C0078
7C007C
78003C
78003C
F0001E
F0001E
F0001E
F0001E
F0001E
F0001E
F0001E
F0001E
F0001E
F0001E
78003C
78003C
78003C
3C0078
3C0078
1E00F0
0E00E0
0F01E0
FF83FE
FF83FE
FF83FE
FF83FE
ENDCHAR
STARTCHAR 03C0
ENCODING 960
SWIDTH 585 0
DWIDTH 26 0
BBX 24 24 2 0
BITMAP
FFFFFE
FFFFFE
FFFFFE
1E00F0
1E00F0
1E00F0
1E00F0
1E00F0
1E00F0
1E00F0
1E00F0
1E00F0
1E00F0
1E00F0
1E00F0
1E00F0
1E00F0
1E00F0
1E00F0
1E00F0
1E00F8
1E00FF
1E007F
1E003F
ENDCHAR
STARTCHAR 2013
ENCODING 8211
SWIDTH 585 0
DWIDTH 26 0
BBX 26 3 0 11
BITMAP
FFFFFFC0
FFFFFFC0
FFFFFFC0
ENDCHAR
STARTCHAR 2014
ENCODING 8212
SWIDTH 585 0
DWIDTH 26 0
BBX 26 3 0 11
BITMAP
FFFFFFC0
FFFFFFC0
FFFFFFC0
ENDCHAR
STARTCHAR 2018
ENCODING 8216
SWIDTH 585 0
DWIDTH 26 0
BBX 7 13 10 20
BITMAP
0E
1E
1C
3C
3C
7C
78
F8
F8
F8
F8
F8
F8
ENDCHAR
STARTCHAR 2019
ENCODING 8217
SWIDTH 585 0
DWIDTH 26 0
BBX 7 13 10 20
BITMAP
3E
3E
3E
3E
3E
3E
3C
7C
78
78
70
F0
E0
ENDCHAR
STARTCHAR 201A
ENCODING 8218
SWIDTH 585 0
DWIDTH 26 0
BBX 7 13 9 -6
BITMAP
3E
3E
3E
3E
3E
3E
3C
7C
78
78
70
F0
E0
ENDCHAR
STARTCHAR 201C
ENCODING 8220
SWIDTH 585 0
DWIDTH 26 0
BBX 16 13 5 20
BITMAP
0E07
1E0F
1C0E
3C1E
3C1E
7C3E
783C
F87C
F87C
F87C
F87C
F87C
F87C
ENDCHAR
STARTCHAR 201D
ENCODING 8221
SWIDTH 585 0
DWIDTH 26 0
BBX 16 13 5 20
BITMAP
3E1F
3E1F
3E1F
3E1F
3E1F
3E1F
3C1E
7C3E
783C
783C
7038
F078
E070
ENDCHAR
STARTCHAR 201E
ENCODING 8222
SWIDTH 585 0
DWIDTH 26 0
BBX 16 13 5 -6
BITMAP
3E1F
3E1F
3E1F
3E1F
3E1F
3E1F
3C1E
7C3E
783C
783C
7038
F078
E070
ENDCHAR
STARTCHAR 2020
ENCODING 8224
SWIDTH 585 0
DWIDTH 26 0
BBX 20 36 3 -4
BITMAP
00F000
00F000
00F000
00F000
00F000
00F000
00F000
00F000
00F000
FFFFF0
FFFFF0
FFFFF0
00F000
00F000
00F000
00F000
00F000
00F000
00F000
00F000
00F000
00F000
00F000
00F000
00F000
00F000
00F000
00F000
00F000
00F000
00F000
00F000
00F000
00F000
00F000
00F000
ENDCHAR
STARTCHAR 2021
ENCODING 8225
SWIDTH 585 0
DWIDTH 26 0
BBX 20 36 3 -4
BITMAP
00F000
00F000
00F000
00F000
00F000
00F000
00F000
00F000
00F000
FFFFF0
FFFFF0
FFFFF0
00F000
00F000
00F000
00F000
00F000
00F000
00F000
00F000
00F000
00F000
00F000
00F000
FFFFF0
FFFFF0
FFFFF0
00F000
00F000
00F000
00F000
00F000
00F000
00F000
00F000
00F000
ENDCHAR
STARTCHAR 2022
ENCODING 8226
SWIDTH 585 0
DWIDTH 26 0
BBX 13 13 7 10
BITMAP
0F80
3FE0
7FF0
7FF0
FFF8
FFF8
FFF8
FFF8
FFF8
7FF0
7FF0
3FE0
0F80
ENDCHAR
STARTCHAR 2026
ENCODING 8230
SWIDTH 585 0
DWIDTH 26 0
BBX 23 7 2 0
BITMAP
F87C3E
F87C3E
F87C3E
F87C3E
F87C3E
F87C3E
F87C3E
ENDCHAR
STARTCHAR 2030
ENCODING 8240
SWIDTH 585 0
DWIDTH 26 0
BBX 26 31 0 0
BITMAP
0F000000
3FC00000
7FE00000
F0E00000
E0700000
E0700000
E0700000
E0700200
F0E01E00
7FE07C00
3FC1F000
1F07C000
003F0000
00FC0000
03F00000
0F800000
7E000000
78000000
60000000
07803C00
1FE0FF00
3FF1FF80
7873C380
703B81C0
703B81C0
703B81C0
703B81C0
7873C380
3FF1FF80
1FE0FF00
0F803C00
ENDCHAR
STARTCHAR 2039
ENCODING 8249
SWIDTH 585 0
DWIDTH 26 0
BBX 10 20 7 3
BITMAP
0040
00C0
01C0
03C0
07C0
0F80
1E00
3C00
7800
F000
F000
7800
3C00
1E00
0F80
07C0
03C0
01C0
00C0
0040
ENDCHAR
STARTCHAR 203A
ENCODING 8250
SWIDTH 585 0
DWIDTH 26 0
BBX 10 20 9 3
BITMAP
8000
C000
E000
F000
F800
7C00
1E00
0F00
0780
03C0
03C0
0780
0F00
1E00
7C00
F800
F000
E000
C000
8000
ENDCHAR
STARTCHAR 20AC
ENCODING 8364
SWIDTH 585 0
DWIDTH 26 0
BBX 22 33 1 0
BITMAP
001FE0
007FF8
00FFFC
01F03C
03C00C
078004
078000
0F0000
0F0000
0F0000
1E0000
7FFFC0
FFFF80
FFFF80
1E0000
1E0000
1E0000
1E0000
7FFE00
FFFC00
FFFC00
1E0000
0E0000
0F0000
0F0000
0F0000
078000
07C004
03E00C
01F03C
00FFFC
007FF8
000FE0
ENDCHAR
STARTCHAR 2122
ENCODING 8482
SWIDTH 585 0
DWIDTH 26 0
BBX 24 12 0 20
BITMAP
FFDE0F
FFDE0F
0C1F1F
0C1B9B
0C19B3
0C19F3
0C18E3
0C1863
0C1803
0C1803
0C1803
0C1803
ENDCHAR
STARTCHAR 2202
ENCODING 8706
SWIDTH 585 0
DWIDTH 26 0
BBX 18 28 4 0
BITMAP
01F000
03FC00
07FE00
07C700
070300
000380
000380
0001C0
0001C0
0001C0
0003C0
07E3C0
0FF3C0
3F1BC0
3C0FC0
7C07C0
7807C0
F80780
F00780
F00780
F00700
F00700
F00F00
700E00
701C00
381800
1C7000
07C000
ENDCHAR
STARTCHAR 2206
ENCODING 8710
SWIDTH 585 0
DWIDTH 26 0
BBX 27 31 0 0
BITMAP
001F0000
001F0000
003F8000
003F8000
003F8000
007FC000
007FC000
00FFC000
00FFE000
00FBE000
01FBF000
01F1F000
01F1F000
03F1F800
03E0F800
03E0F800
07E0FC00
07C07C00
0FC07C00
0F807E00
0F803E00
1F803F00
1F001F00
1F001F00
3F001F80
3E000F80
3E000F80
7FFFFFC0
7FFFFFC0
7FFFFFC0
FFFFFFE0
ENDCHAR
STARTCHAR 220F
ENCODING 8719
SWIDTH 585 0
DWIDTH 26 0
BBX 20 42 3 -9
BITMAP
FFFFF0
FFFFF0
FFFFF0
E00070
E00070
E00070
E00070
E00070
E00070
E00070
E00070
E00070
E00070
E00070
E00070
E00070
E00070
E00070
E00070
E00070
E00070
E00070
E00070
E00070
E00070
E00070
E00070
E00070
E00070
E00070
E00070
E00070
E00070
E00070
E00070
E00070
E00070
E00070
E00070
E00070
E00070
E00070
ENDCHAR
STARTCHAR 2211
ENCODING 8721
SWIDTH 585 0
DWIDTH 26 0
BBX 20 42 3 -9
BITMAP
FFFFF0
FFFFF0
FFFFF0
700000
380000
3C0000
1C0000
1E0000
0E0000
070000
078000
038000
01C000
01E000
00E000
007000
007800
003800
003C00
001C00
000E00
001E00
003C00
003800
007800
007000
00F000
01E000
01C000
03C000
038000
078000
0F0000
0E0000
1E0000
1C0000
3C0000
780000
700000
FFFFF0
FFFFF0
FFFFF0
ENDCHAR
STARTCHAR 2212
ENCODING 8722
SWIDTH 585 0
DWIDTH 26 0
BBX 23 4 2 12
BITMAP
FFFFFE
FFFFFE
FFFFFE
FFFFFE
ENDCHAR
STARTCHAR 2215
ENCODING 8725
SWIDTH 585 0
DWIDTH 26 0
BBX 21 36 2 -4
BITMAP
000078
0000F0
0000F0
0001E0
0001E0
0003C0
0003C0
000780
000780
000F80
000F00
000F00
001E00
001E00
003C00
003C00
007800
007800
00F000
00F000
01E000
01E000
03C000
03C000
078000
078000
0F8000
0F0000
0F0000
1E0000
1E0000
3C0000
3C0000
780000
780000
F00000
ENDCHAR
STARTCHAR 2219
ENCODING 8729
SWIDTH 585 0
DWIDTH 26 0
BBX 5 7 11 12
BITMAP
F8
F8
F8
F8
F8
F8
F8
ENDCHAR
STARTCHAR 221A
ENCODING 8730
SWIDTH 585 0
DWIDTH 26 0
BBX 24 37 1 0
BITMAP
000007
00000F
00000F
00000E
00000E
00001C
00001C
00001C
000038
000038
000038
000070
000070
000070
0000E0
0000E0
0000E0
1E00C0
FE01C0
FE01C0
6701C0
070380
070380
038380
038700
038700
038700
01CE00
01CE00
01CE00
00FC00
00FC00
00FC00
007800
007800
007800
007800
ENDCHAR
STARTCHAR 221E
ENCODING 8734
SWIDTH 585 0
DWIDTH 26 0
BBX 25 16 1 6
BITMAP
0F80F800
3FC1FC00
7FE3FE00
78F78F00
F0770700
E03E0380
E03E0380
E01C0380
E01C0380
E03E0380
E03E0380
70770700
78F78F00
3FE3FE00
1FC1FE00
0F80F800
ENDCHAR
STARTCHAR 222B
ENCODING 8747
SWIDTH 585 0
DWIDTH 26 0
BBX 20 41 3 -8
BITMAP
0003C0
000FF0
001DF0
0019F0
0038E0
003800
003800
007800
007800
007000
007000
007000
00F000
00F000
00F000
00F000
00F000
00F000
00F000
00F000
00F000
00F000
00F000
00F000
00F000
00F000
00F000
00F000
00F000
00E000
00E000
00E000
01E000
01E000
01C000
01C000
71C000
F98000
FB8000
FF0000
7C0000
ENDCHAR
STARTCHAR 2248
ENCODING 8776
SWIDTH 585 0
DWIDTH 26 0
BBX 23 15 2 6
BITMAP
0FC002
3FF006
FFFC1E
FFFFFE
F07FFE
C00FF8
8003E0
000000
0F8002
3FF006
FFFC1E
FFFFFE
F07FFE
C00FF8
8003E0
ENDCHAR
STARTCHAR 2260
ENCODING 8800
SWIDTH 585 0
DWIDTH 26 0
BBX 23 27 2 0
BITMAP
000010
000038
00003C
000078
0000F0
0001F0
0003E0
FFFFFE
FFFFFE
FFFFFE
FFFFFE
001E00
003E00
007C00
00F800
00F000
FFFFFE
FFFFFE
FFFFFE
FFFFFE
0F8000
1F0000
3E0000
3C0000
780000
380000
100000
ENDCHAR
STARTCHAR 2264
ENCODING 8804
SWIDTH 585 0
DWIDTH 26 0
BBX 23 24 2 0
BITMAP
000006
00003E
0001FE
000FFE
007FF8
07FFC0
3FFC00
FFE000
FE0000
FE0000
FFE000
3FFC00
07FFC0
007FF8
000FFE
0001FE
00003E
000006
000000
000000
FFFFFE
FFFFFE
FFFFFE
FFFFFE
ENDCHAR
STARTCHAR 2265
ENCODING 8805
SWIDTH 585 0
DWIDTH 26 0
BBX 23 24 2 0
BITMAP
C00000
F80000
FF0000
FFE000
3FFC00
07FFC0
007FF8
000FFE
0000FE
0000FE
000FFE
007FF8
07FFC0
3FFC00
FFE000
FF0000
F80000
C00000
000000
000000
FFFFFE
FFFFFE
FFFFFE
FFFFFE
ENDCHAR
STARTCHAR 25CA
ENCODING 9674
SWIDTH 585 0
DWIDTH 26 0
BBX 21 46 3 -10
BITMAP
002000
002000
007000
007000
00F800
00D800
01D800
01DC00
018C00
038E00
030600
070700
060300
0E0380
0C0180
1C01C0
1800C0
3800E0
300060
300060
700070
600030
E00038
E00038
600030
700070
300060
300060
1800C0
1800C0
1C01C0
0C0180
0E0380
060300
070700
030600
038E00
018C00
018C00
00D800
00D800
00F800
007000
007000
002000
002000
ENDCHAR
STARTCHAR FB01
ENCODING 64257
SWIDTH 585 0
DWIDTH 26 0
BBX 22 33 1 0
BITMAP
00FF3C
03FF3C
07FF3C
07803C
0F003C
0F0000
0F0000
0F0000
0F0000
FFFFFC
FFFFFC
FFFFFC
0F003C
0F003C
0F003C
0F003C
0F003C
0F003C
0F003C
0F003C
0F003C
0F003C
0F003C
0F003C
0F003C
0F003C
0F003C
0F003C
0F003C
0F003C
0F003C
0F003C
0F003C
ENDCHAR
STARTCHAR FB02
ENCODING 64258
SWIDTH 585 0
DWIDTH 26 0
BBX 22 33 1 0
BITMAP
00FFFC
03FFFC
07FFFC
07803C
0F003C
0F003C
0F003C
0F003C
0F003C
FFFC3C
FFFC3C
FFFC3C
0F003C
0F003C
0F003C
0F003C
0F003C
0F003C
0F003C
0F003C
0F003C
0F003C
0F003C
0F003C
0F003C
0F003C
0F003C
0F003C
0F003C
0F003C
0F003C
0F003C
0F003C
ENDCHAR
ENDFONT
